<svg xmlns="http://www.w3.org/2000/svg" viewBox="0 0 500 500"><g id="freepik--background-simple--inject-40"><path d="M472.56,180.13C453.88,114.41,404,62.19,339.79,38.89A389.88,389.88,0,0,0,266,20.23c-103.37-15.9-155.63,52.1-161,90.33s-49.74,38.89-71.6,96.54-47,190.18,121.26,250.48,240.43,11.68,259.76-28.5,27.83-71.56,58.31-160.36C483,238.75,480.44,207.88,472.56,180.13Z" style="fill:#08AEEA"></path><path d="M472.56,180.13C453.88,114.41,404,62.19,339.79,38.89A389.88,389.88,0,0,0,266,20.23c-103.37-15.9-155.63,52.1-161,90.33s-49.74,38.89-71.6,96.54-47,190.18,121.26,250.48,240.43,11.68,259.76-28.5,27.83-71.56,58.31-160.36C483,238.75,480.44,207.88,472.56,180.13Z" style="fill:#fff;opacity:0.7000000000000001"></path></g><g id="freepik--coral-2--inject-40"><path d="M201,346.76s-21.83-91.35-47-136.64-62.7-77.94-56.09-100.25c4.55-15.34,20.77-22,33.88-15.65,6,2.9,8,7.66,13.75,17,18.48,29.84,37.35,74,52,126.31s37.85,103.07,30.2,124.17S206.46,369.72,201,346.76Z" style="fill:#999;stroke:#263238;stroke-miterlimit:10"></path><path d="M130.34,133.7c1.13-.64,2.33-1.34,3.59-2.12" style="fill:none;stroke:#263238;stroke-miterlimit:10"></path><path d="M112,139.61s4.37,1.38,15.9-4.6" style="fill:none;stroke:#263238;stroke-miterlimit:10"></path><path d="M148.75,135.29c-.12.86-3,5-11.73,7.72" style="fill:none;stroke:#263238;stroke-miterlimit:10"></path><path d="M138.57,161.36a31.14,31.14,0,0,0,12.34-8.47" style="fill:none;stroke:#263238;stroke-miterlimit:10"></path><path d="M129.3,162.77a7.13,7.13,0,0,0,3.41.15" style="fill:none;stroke:#263238;stroke-miterlimit:10"></path><path d="M152.15,164.64c-1.38.72-2.91,1.44-4.63,2.14" style="fill:none;stroke:#263238;stroke-miterlimit:10"></path><path d="M163.57,154.43s-1.12,3.94-8.34,8.46" style="fill:none;stroke:#263238;stroke-miterlimit:10"></path><path d="M156,178a40.06,40.06,0,0,0,3.53-2.56" style="fill:none;stroke:#263238;stroke-miterlimit:10"></path><path d="M142.58,183.46a36.1,36.1,0,0,0,10.83-3.92" style="fill:none;stroke:#263238;stroke-miterlimit:10"></path><path d="M143.81,123.25a43.26,43.26,0,0,1-5.25,4.32" style="fill:none;stroke:#263238;stroke-miterlimit:10"></path><path d="M168.82,179.75a30.3,30.3,0,0,1-12.35,8.65" style="fill:none;stroke:#263238;stroke-miterlimit:10"></path><path d="M163.69,198.12a21.75,21.75,0,0,0,2.66-2" style="fill:none;stroke:#263238;stroke-miterlimit:10"></path><path d="M152.77,202.91a43.47,43.47,0,0,0,7.1-2.67" style="fill:none;stroke:#263238;stroke-miterlimit:10"></path><path d="M105,110.56c2.09,3.8,8.61,4.24,14.56,1s9.09-9,7-12.8-8.61-4.24-14.56-1S102.89,106.75,105,110.56Z" style="fill:#263238;stroke:#263238;stroke-miterlimit:10"></path><path d="M236.33,346.15S209.39,249.79,191,205.26c-7.9-19.17-10.86-28.25-8.32-36,3.36-10.27,15.36-15.6,28.41-13.28,22.9,4.07,24.29,34.68,26.34,72.43s13.27,92.16,11.26,108.81S240,354.65,236.33,346.15Z" style="fill:#999;stroke:#263238;stroke-miterlimit:10"></path><path d="M207.29,186.07c1.15-.32,2.37-.68,3.67-1.09" style="fill:none;stroke:#263238;stroke-miterlimit:10"></path><path d="M189.64,187.27s3.59,2.2,15.19-.57" style="fill:none;stroke:#263238;stroke-miterlimit:10"></path><path d="M223.34,191.57c-.29.74-3.82,3.79-12.16,4.28" style="fill:none;stroke:#263238;stroke-miterlimit:10"></path><path d="M208.49,212.54a28.59,28.59,0,0,0,12.88-4.81" style="fill:none;stroke:#263238;stroke-miterlimit:10"></path><path d="M199.91,211.74a6.53,6.53,0,0,0,3,.89" style="fill:none;stroke:#263238;stroke-miterlimit:10"></path><path d="M219.86,218.48c-1.39.33-2.92.63-4.6.88" style="fill:none;stroke:#263238;stroke-miterlimit:10"></path><path d="M232.3,211.92s-1.87,3.26-9.3,5.68" style="fill:none;stroke:#263238;stroke-miterlimit:10"></path><path d="M220.35,231.24a37.12,37.12,0,0,0,3.72-1.5" style="fill:none;stroke:#263238;stroke-miterlimit:10"></path><path d="M207.15,233.12A33.1,33.1,0,0,0,217.68,232" style="fill:none;stroke:#263238;stroke-miterlimit:10"></path><path d="M221.61,179.74a39.35,39.35,0,0,1-5.63,2.69" style="fill:none;stroke:#263238;stroke-miterlimit:10"></path><path d="M231.36,235.64a27.71,27.71,0,0,1-12.92,5" style="fill:none;stroke:#263238;stroke-miterlimit:10"></path><path d="M222.71,250.88a21.32,21.32,0,0,0,2.82-1.2" style="fill:none;stroke:#263238;stroke-miterlimit:10"></path><path d="M211.92,252.72a40.42,40.42,0,0,0,6.92-.8" style="fill:none;stroke:#263238;stroke-miterlimit:10"></path><ellipse cx="201.87" cy="169.78" rx="13.81" ry="8.82" transform="translate(-45.14 77.24) rotate(-19.53)" style="fill:#263238;stroke:#263238;stroke-miterlimit:10"></ellipse><path d="M224.9,378.18s-13.7-88-25.25-129.35,1.24-49.1,21.06-43.1,19.71,34.86,17.56,68.45,2.06,82.89-1.47,97.41S227.23,386.08,224.9,378.18Z" style="fill:#999;stroke:#263238;stroke-miterlimit:10"></path><path d="M216.15,239.24c1.08-.14,2.22-.31,3.44-.52" style="fill:none;stroke:#263238;stroke-miterlimit:10"></path><path d="M200.13,238.07s3,2.44,13.73,1.42" style="fill:none;stroke:#263238;stroke-miterlimit:10"></path><path d="M229.89,246.22c-.37.63-3.93,2.93-11.49,2.3" style="fill:none;stroke:#263238;stroke-miterlimit:10"></path><path d="M213.86,263.19a25.94,25.94,0,0,0,12.19-2.69" style="fill:none;stroke:#263238;stroke-miterlimit:10"></path><path d="M206.26,261.38a5.73,5.73,0,0,0,2.58,1.18" style="fill:none;stroke:#263238;stroke-miterlimit:10"></path><path d="M223.33,270c-1.29.13-2.7.2-4.25.21" style="fill:none;stroke:#263238;stroke-miterlimit:10"></path><path d="M235.36,265.66s-2.1,2.69-9.1,3.92" style="fill:none;stroke:#263238;stroke-miterlimit:10"></path><path d="M222.15,281.51a32.63,32.63,0,0,0,3.54-.88" style="fill:none;stroke:#263238;stroke-miterlimit:10"></path><path d="M210.05,281.53a30.26,30.26,0,0,0,9.6.36" style="fill:none;stroke:#263238;stroke-miterlimit:10"></path><path d="M229.83,235.37a36.56,36.56,0,0,1-5.41,1.7" style="fill:none;stroke:#263238;stroke-miterlimit:10"></path><path d="M231.5,286.87a25.25,25.25,0,0,1-12.25,2.82" style="fill:none;stroke:#263238;stroke-miterlimit:10"></path><path d="M221.78,299.47a20.08,20.08,0,0,0,2.69-.72" style="fill:none;stroke:#263238;stroke-miterlimit:10"></path><path d="M211.84,299.75a37.35,37.35,0,0,0,6.33.16" style="fill:none;stroke:#263238;stroke-miterlimit:10"></path><path d="M201,221.32c1,4.23,7.1,6.45,13.72,5s11.22-6.15,10.26-10.38-7.1-6.45-13.72-4.95S200,217.08,201,221.32Z" style="fill:#263238;stroke:#263238;stroke-miterlimit:10"></path><path d="M278.54,348.14s7.5-103.21.33-151c-5.06-33.7,22.81-40,34.15-23,3.87,5.8,3.81,16.92,2.59,27.06-5.19,43.15-2,126.17-21.39,144C280,358.37,278.54,348.14,278.54,348.14Z" style="fill:#999;stroke:#263238;stroke-miterlimit:10"></path><path d="M297.12,197.31c1,0,2.14-.05,3.31-.12" style="fill:none;stroke:#263238;stroke-miterlimit:10"></path><path d="M282.1,194.53s2.53,2.61,12.83,2.78" style="fill:none;stroke:#263238;stroke-miterlimit:10"></path><path d="M309.38,205.37c-.41.55-4,2.35-11.1,1" style="fill:none;stroke:#263238;stroke-miterlimit:10"></path><path d="M292.44,219.73a24.77,24.77,0,0,0,11.81-1.26" style="fill:none;stroke:#263238;stroke-miterlimit:10"></path><path d="M285.43,217.22a5.64,5.64,0,0,0,2.33,1.38" style="fill:none;stroke:#263238;stroke-miterlimit:10"></path><path d="M300.68,227.14c-1.23,0-2.57-.1-4-.25" style="fill:none;stroke:#263238;stroke-miterlimit:10"></path><path d="M312.51,224.33s-2.27,2.32-9,2.75" style="fill:none;stroke:#263238;stroke-miterlimit:10"></path><path d="M298.35,237.93a31.66,31.66,0,0,0,3.44-.46" style="fill:none;stroke:#263238;stroke-miterlimit:10"></path><path d="M286.9,236.67a28.66,28.66,0,0,0,9,1.35" style="fill:none;stroke:#263238;stroke-miterlimit:10"></path><path d="M310.48,195.1a34.64,34.64,0,0,1-5.3,1" style="fill:none;stroke:#263238;stroke-miterlimit:10"></path><path d="M306.62,244a24,24,0,0,1-11.88,1.38" style="fill:none;stroke:#263238;stroke-miterlimit:10"></path><path d="M296.11,254.87a18.88,18.88,0,0,0,2.61-.39" style="fill:none;stroke:#263238;stroke-miterlimit:10"></path><path d="M286.68,254.1a35,35,0,0,0,6,.81" style="fill:none;stroke:#263238;stroke-miterlimit:10"></path><path d="M283.72,177.58c0,4.34,5.45,7.9,12.24,7.94s12.32-3.43,12.35-7.77-5.45-7.9-12.24-7.94S283.75,173.24,283.72,177.58Z" style="fill:#263238;stroke:#263238;stroke-miterlimit:10"></path><path d="M249.06,361.66S243.11,248,235.15,191.11s-15.51-90.17.75-98.24,30.28-4.92,34.07,31,.12,146.9.66,166.73-2.43,41.23-4.89,56.32S251.78,373.26,249.06,361.66Z" style="fill:#999;stroke:#263238;stroke-miterlimit:10"></path><path d="M247.25,124.79c1.08-.14,2.23-.31,3.44-.51" style="fill:none;stroke:#263238;stroke-miterlimit:10"></path><path d="M231.24,123.63s2.94,2.43,13.73,1.42" style="fill:none;stroke:#263238;stroke-miterlimit:10"></path><path d="M261,131.78c-.36.63-3.92,2.92-11.48,2.3" style="fill:none;stroke:#263238;stroke-miterlimit:10"></path><path d="M245,148.75a26,26,0,0,0,12.19-2.69" style="fill:none;stroke:#263238;stroke-miterlimit:10"></path><path d="M237.36,146.94a6,6,0,0,0,2.59,1.18" style="fill:none;stroke:#263238;stroke-miterlimit:10"></path><path d="M254.44,155.53c-1.29.12-2.7.2-4.25.21" style="fill:none;stroke:#263238;stroke-miterlimit:10"></path><path d="M266.46,151.21s-2.1,2.69-9.09,3.93" style="fill:none;stroke:#263238;stroke-miterlimit:10"></path><path d="M253.26,167.06a31.8,31.8,0,0,0,3.53-.87" style="fill:none;stroke:#263238;stroke-miterlimit:10"></path><path d="M241.15,167.08a29.91,29.91,0,0,0,9.6.36" style="fill:none;stroke:#263238;stroke-miterlimit:10"></path><path d="M260.94,120.92a35.67,35.67,0,0,1-5.41,1.7" style="fill:none;stroke:#263238;stroke-miterlimit:10"></path><path d="M262.6,172.43a25.34,25.34,0,0,1-12.25,2.82" style="fill:none;stroke:#263238;stroke-miterlimit:10"></path><path d="M252.89,185a18.56,18.56,0,0,0,2.68-.72" style="fill:none;stroke:#263238;stroke-miterlimit:10"></path><path d="M243,185.31a37.19,37.19,0,0,0,6.32.16" style="fill:none;stroke:#263238;stroke-miterlimit:10"></path><path d="M253.87,202.61c1,0,2.13-.1,3.3-.2" style="fill:none;stroke:#263238;stroke-miterlimit:10"></path><path d="M238.78,200.14s2.59,2.56,12.9,2.51" style="fill:none;stroke:#263238;stroke-miterlimit:10"></path><path d="M266.29,210.4c-.4.57-4,2.44-11.08,1.2" style="fill:none;stroke:#263238;stroke-miterlimit:10"></path><path d="M249.65,225.12a24.73,24.73,0,0,0,11.79-1.51" style="fill:none;stroke:#263238;stroke-miterlimit:10"></path><path d="M242.6,222.75a5.49,5.49,0,0,0,2.35,1.34" style="fill:none;stroke:#263238;stroke-miterlimit:10"></path><path d="M258.05,232.36c-1.23,0-2.58-.05-4.05-.17" style="fill:none;stroke:#263238;stroke-miterlimit:10"></path><path d="M269.81,229.29s-2.22,2.37-8.95,2.94" style="fill:none;stroke:#263238;stroke-miterlimit:10"></path><path d="M255.94,243.19a31.84,31.84,0,0,0,3.43-.53" style="fill:none;stroke:#263238;stroke-miterlimit:10"></path><path d="M244.47,242.17a28.71,28.71,0,0,0,9.07,1.16" style="fill:none;stroke:#263238;stroke-miterlimit:10"></path><path d="M267.17,200.11a34.92,34.92,0,0,1-5.27,1.15" style="fill:none;stroke:#263238;stroke-miterlimit:10"></path><path d="M264.34,249.07a24.06,24.06,0,0,1-11.85,1.62" style="fill:none;stroke:#263238;stroke-miterlimit:10"></path><path d="M254.06,260.18a20.17,20.17,0,0,0,2.6-.45" style="fill:none;stroke:#263238;stroke-miterlimit:10"></path><path d="M244.61,259.6a35.72,35.72,0,0,0,6,.69" style="fill:none;stroke:#263238;stroke-miterlimit:10"></path><ellipse cx="245.95" cy="101.03" rx="12.29" ry="7.86" transform="translate(-19.62 88.02) rotate(-19.53)" style="fill:#263238;stroke:#263238;stroke-miterlimit:10"></ellipse><path d="M168.61,353.64s-22.1-61.81-60-118.71c-27.4-41.16-35.31-55.44-31.21-64.44C79,167.05,84,161.4,87.85,159.71c14-6.1,26.35-.87,33.11,13.87S159.36,234,174.18,275s20.8,66.34,18.56,77.57S172.69,371.18,168.61,353.64Z" style="fill:#999;stroke:#263238;stroke-miterlimit:10"></path><path d="M108.72,194.53c1.14-.64,2.34-1.34,3.6-2.12" style="fill:none;stroke:#263238;stroke-miterlimit:10"></path><path d="M90.39,200.44s4.38,1.38,15.91-4.6" style="fill:none;stroke:#263238;stroke-miterlimit:10"></path><path d="M127.14,196.12c-.12.86-3,5-11.73,7.72" style="fill:none;stroke:#263238;stroke-miterlimit:10"></path><path d="M117,222.19a31.24,31.24,0,0,0,12.35-8.47" style="fill:none;stroke:#263238;stroke-miterlimit:10"></path><path d="M107.69,223.6a7,7,0,0,0,3.4.14" style="fill:none;stroke:#263238;stroke-miterlimit:10"></path><path d="M130.53,225.47q-2.06,1.08-4.63,2.14" style="fill:none;stroke:#263238;stroke-miterlimit:10"></path><path d="M142,215.26s-1.12,3.94-8.34,8.45" style="fill:none;stroke:#263238;stroke-miterlimit:10"></path><path d="M134.41,238.82a38.73,38.73,0,0,0,3.54-2.56" style="fill:none;stroke:#263238;stroke-miterlimit:10"></path><path d="M121,244.29a36.1,36.1,0,0,0,10.84-3.92" style="fill:none;stroke:#263238;stroke-miterlimit:10"></path><path d="M122.2,184.08A43.26,43.26,0,0,1,117,188.4" style="fill:none;stroke:#263238;stroke-miterlimit:10"></path><path d="M147.21,240.58a30.3,30.3,0,0,1-12.35,8.65" style="fill:none;stroke:#263238;stroke-miterlimit:10"></path><path d="M142.07,259a22.93,22.93,0,0,0,2.67-2" style="fill:none;stroke:#263238;stroke-miterlimit:10"></path><path d="M131.15,263.74a43.75,43.75,0,0,0,7.11-2.67" style="fill:none;stroke:#263238;stroke-miterlimit:10"></path><path d="M82.58,174.79c1.45,4.09,7.82,5.57,14.22,3.3s10.41-7.42,9-11.52-7.82-5.56-14.22-3.29S81.13,170.7,82.58,174.79Z" style="fill:#263238;stroke:#263238;stroke-miterlimit:10"></path><path d="M193.76,373.12s-24-85.8-40.34-125.46-4.56-48.91,15.84-45.29,23.68,32.29,25.51,65.91,11.82,82.06,10,96.89S197,380.69,193.76,373.12Z" style="fill:#999;stroke:#263238;stroke-miterlimit:10"></path><path d="M169.31,238.25c1.15-.31,2.37-.68,3.67-1.09" style="fill:none;stroke:#263238;stroke-miterlimit:10"></path><path d="M151.66,239.45s3.59,2.2,15.19-.57" style="fill:none;stroke:#263238;stroke-miterlimit:10"></path><path d="M185.36,243.75c-.29.74-3.82,3.8-12.16,4.28" style="fill:none;stroke:#263238;stroke-miterlimit:10"></path><path d="M170.51,264.73a28.83,28.83,0,0,0,12.88-4.81" style="fill:none;stroke:#263238;stroke-miterlimit:10"></path><path d="M161.93,263.93a6.55,6.55,0,0,0,3,.88" style="fill:none;stroke:#263238;stroke-miterlimit:10"></path><path d="M181.88,270.66c-1.39.33-2.92.63-4.6.88" style="fill:none;stroke:#263238;stroke-miterlimit:10"></path><path d="M194.33,264.1s-1.88,3.26-9.31,5.68" style="fill:none;stroke:#263238;stroke-miterlimit:10"></path><path d="M182.37,283.42a34.88,34.88,0,0,0,3.72-1.5" style="fill:none;stroke:#263238;stroke-miterlimit:10"></path><path d="M169.18,285.31a33,33,0,0,0,10.52-1.09" style="fill:none;stroke:#263238;stroke-miterlimit:10"></path><path d="M183.63,231.93a40,40,0,0,1-5.63,2.68" style="fill:none;stroke:#263238;stroke-miterlimit:10"></path><path d="M193.39,287.83a27.83,27.83,0,0,1-12.93,5" style="fill:none;stroke:#263238;stroke-miterlimit:10"></path><path d="M184.73,303.06a20.77,20.77,0,0,0,2.82-1.2" style="fill:none;stroke:#263238;stroke-miterlimit:10"></path><path d="M173.94,304.9a40.42,40.42,0,0,0,6.92-.8" style="fill:none;stroke:#263238;stroke-miterlimit:10"></path><ellipse cx="163.07" cy="216.07" rx="12.29" ry="7.86" transform="translate(-62.84 66.93) rotate(-19.53)" style="fill:#263238;stroke:#263238;stroke-miterlimit:10"></ellipse><path d="M255.86,370.36s5.82-88.91,3.56-131.74,11.92-47.66,30-37.47,11.64,38.32,2.21,70.63-16.07,81.35-22.68,94.74S256.4,378.58,255.86,370.36Z" style="fill:#999;stroke:#263238;stroke-miterlimit:10"></path><path d="M280.37,228.4q1.54.15,3.3.24" style="fill:none;stroke:#263238;stroke-miterlimit:10"></path><path d="M265.74,224s2.23,2.88,12.45,4.19" style="fill:none;stroke:#263238;stroke-miterlimit:10"></path><path d="M291.67,237.76c-.47.51-4.26,1.89-11.15-.27" style="fill:none;stroke:#263238;stroke-miterlimit:10"></path><path d="M273.24,250.16a24.74,24.74,0,0,0,11.88.06" style="fill:none;stroke:#263238;stroke-miterlimit:10"></path><path d="M266.56,246.9a5.61,5.61,0,0,0,2.15,1.63" style="fill:none;stroke:#263238;stroke-miterlimit:10"></path><path d="M280.62,258.44q-1.83-.22-4-.69" style="fill:none;stroke:#263238;stroke-miterlimit:10"></path><path d="M292.68,256.94s-2.51,2.06-9.26,1.75" style="fill:none;stroke:#263238;stroke-miterlimit:10"></path><path d="M277.11,268.9a31.43,31.43,0,0,0,3.47-.07" style="fill:none;stroke:#263238;stroke-miterlimit:10"></path><path d="M265.87,266.39a28.47,28.47,0,0,0,8.84,2.34" style="fill:none;stroke:#263238;stroke-miterlimit:10"></path><path d="M293.88,227.67a34.94,34.94,0,0,1-5.37.45" style="fill:none;stroke:#263238;stroke-miterlimit:10"></path><path d="M284.67,275.83a24,24,0,0,1-12,.06" style="fill:none;stroke:#263238;stroke-miterlimit:10"></path><path d="M273,285.5a17.88,17.88,0,0,0,2.64-.11" style="fill:none;stroke:#263238;stroke-miterlimit:10"></path><path d="M263.73,283.69a35.08,35.08,0,0,0,5.84,1.47" style="fill:none;stroke:#263238;stroke-miterlimit:10"></path><ellipse cx="279" cy="212.02" rx="12.29" ry="7.86" transform="translate(-0.58 0.77) rotate(-0.16)" style="fill:#263238;stroke:#263238;stroke-miterlimit:10"></ellipse></g><g id="freepik--coral-1--inject-40"><path d="M184.13,327.55c-14.82,7.29-27.14,18.91-36.59,32.35C138.92,372.15,130.11,388,127.8,403c-1.13,7.34-1.78,15.12-1.18,19.66s26.15,18.31,72,25,99.63,4.95,119.49-1.63,58.69-19.26,64.29-29.48-3.8-46.42-19.9-64.14c-29.71-32.73-58.43-42.81-97.26-44.27S184.13,327.55,184.13,327.55Z" style="fill:#ccc;stroke:#263238;stroke-miterlimit:10"></path><path d="M191.8,345.48c2.46,0,2.93.85,3.13,1.22,2.27,4.13-2.16,12.35-5.84,14.42a6,6,0,0,1-2.69.5c-2.8,0-5.73-1.09-7.12-2.65a2.93,2.93,0,0,1-.79-2.46c.67-5.82,6.45-9.28,7.38-9.81a18.75,18.75,0,0,1,5.93-1.22m0-5a23.55,23.55,0,0,0-8,1.68s-9.16,4.58-10.22,13.75c-.8,6.95,6.71,10.66,12.85,10.66a10.6,10.6,0,0,0,5.13-1.15c5.64-3.17,11.63-14.1,7.76-21.15-1.62-2.93-4.58-3.79-7.49-3.79Z" style="fill:#ccc;stroke:#263238;stroke-miterlimit:10"></path><path d="M196.59,382.41c5.69,0,12.63,3.66,14.88,10.66,2.54,7.87-2,16-7.88,18.61a11.75,11.75,0,0,1-4.86,1c-9.08,0-17.89-8.62-18.09-15.31-.16-5.07,4.67-10,6.54-11.44a15.47,15.47,0,0,1,9.06-3.53h.35m0-5h-.48a20.44,20.44,0,0,0-12,4.58c-.55.43-8.72,7-8.46,15.51.3,9.89,11.85,20.13,23.06,20.13a16.79,16.79,0,0,0,6.9-1.44c8.21-3.7,13.86-14.51,10.58-24.68-2.9-9-11.68-14.11-19.62-14.11Z" style="fill:#ccc;stroke:#263238;stroke-miterlimit:10"></path><path d="M215.08,351.11c-.08.48-.17,1-.26,1.56-1.19,7.34-1.24,8.4-1.09,9.8a17.77,17.77,0,0,0,1.85,6.2,5.1,5.1,0,0,1-1.41-.2c-2.84-.9-5-5.85-4.33-10a10.3,10.3,0,0,1,3.15-5.68,14,14,0,0,1,2.09-1.68m3.69-6.63c-2.5,0-6.55,2.1-9.26,4.76a15.06,15.06,0,0,0-4.58,8.46c-1,6.1,2.08,13.73,7.75,15.51a10.25,10.25,0,0,0,3,.44c2.59,0,5.1-.92,5.82-2.56,1-2.24-2.25-3.92-2.82-9.16-.07-.69-.09-1.37,1.06-8.46,1.12-6.91,1.4-7.82.71-8.46a2.36,2.36,0,0,0-1.67-.53Z" style="fill:#ccc;stroke:#263238;stroke-miterlimit:10"></path><path d="M215.77,327.42h0c1.88,0,3.54,1.26,3.66,1.78,0,.83-2.48,3.41-5.94,4.9a12.57,12.57,0,0,1-3.8,1.13,12.12,12.12,0,0,1,1.07-3.55c.35-.71,2.22-4.26,5-4.26m0-5c-6,0-9.05,6.25-9.43,7.05-.26.51-3.2,6.71-.36,9.52a4.74,4.74,0,0,0,3.42,1.19,16.68,16.68,0,0,0,6.1-1.55c3.5-1.5,9.92-5.77,8.81-10.57-.77-3.35-4.87-5.61-8.46-5.64Z" style="fill:#ccc;stroke:#263238;stroke-miterlimit:10"></path><path d="M163,361.19c-.52,2.33-1.34,6.17,1.37,9.51s6.81,3.44,9.5,3.48c.51,0,1.17,0,1.7.07l-.07.21c-.2.61-1.21,1.52-4.86,2.37a15.79,15.79,0,0,1-3.61.46,7.74,7.74,0,0,1-5.35-1.79c-2.11-1.9-2.42-4.69-2.6-6.36-.28-2.5-.43-5.06,1-6.5a5.92,5.92,0,0,1,2.9-1.45m.94-5.07a10.93,10.93,0,0,0-7.34,3c-3.27,3.25-2.75,8-2.47,10.57.23,2,.7,6.36,4.23,9.52a12.69,12.69,0,0,0,8.67,3.06,20.51,20.51,0,0,0,4.73-.59c2.08-.48,7.13-1.65,8.46-5.64.13-.39,1-3-.35-4.94-2.45-3.53-9-.3-11.64-3.52-2.42-3,1.63-7.72-.7-10.22a4.83,4.83,0,0,0-3.59-1.23Z" style="fill:#ccc;stroke:#263238;stroke-miterlimit:10"></path><path d="M144.78,384.83l.25.6a12.13,12.13,0,0,0,5.23,6.53,10.68,10.68,0,0,0,4.89,1.44,3.11,3.11,0,0,1,1.62.42,5.47,5.47,0,0,1,2,1.42,11.12,11.12,0,0,1-2.15,2.68,9.23,9.23,0,0,1-5.3,2.8,8.37,8.37,0,0,1-1.45.12,8.13,8.13,0,0,1-4.36-1.19,9.29,9.29,0,0,1-3.84-5.65c-1.08-3.61-1-6.16.31-7.57a5.57,5.57,0,0,1,2.81-1.6m.28-5a10,10,0,0,0-6.76,3.25c-3.83,4.19-2,10.48-1.41,12.34a14.19,14.19,0,0,0,6,8.46,13.28,13.28,0,0,0,7,1.93,14.27,14.27,0,0,0,10.3-4.4c1.55-1.58,4.06-4.12,3.52-7.05s-3.46-4.34-4.58-4.94c-3-1.58-4-.43-6.35-1.76-3.65-2.12-2.63-6-5.64-7.4a4.89,4.89,0,0,0-2.05-.43Z" style="fill:#ccc;stroke:#263238;stroke-miterlimit:10"></path><path d="M169.34,409.81h.14c.58.11,1.56.92,2.42,2.49a9.43,9.43,0,0,1,.55,1.17,18.85,18.85,0,0,0-2.63.32,20,20,0,0,0-4.66,1.41,16,16,0,0,0-4.8,3.33,4.9,4.9,0,0,1-.17-1.44c.07-1.84,2.89-3.7,5.17-5.19,1.49-1,3.19-2.1,4-2.1h0m0-5c-2.28,0-4.35,1.36-6.72,2.92-3.14,2.06-7.24,4.76-7.4,9.16-.15,4.06,2.58,8.46,4.92,8.46h0c2.09,0,2.52-3.6,7.05-5.64a15.43,15.43,0,0,1,3.52-1.06,15.12,15.12,0,0,1,2.7-.26c1.4,0,2.35.22,3,.22a1.32,1.32,0,0,0,1-.31c2.07-1.9-1-12.28-7.05-13.39a5.31,5.31,0,0,0-1-.1Z" style="fill:#ccc;stroke:#263238;stroke-miterlimit:10"></path><path d="M183.77,425.67a11.9,11.9,0,0,0,4,2.87,11.22,11.22,0,0,0,4.45.92,17.33,17.33,0,0,0,5.07-.92,10.09,10.09,0,0,1,2.54-.54,3.57,3.57,0,0,1,2.12.84,8.79,8.79,0,0,1-.58,1.64,6.49,6.49,0,0,1-2.77,3.24c-.6.33-1.27.5-3.28.5-.84,0-1.83,0-3-.06-4.44-.13-5.93-.21-7.61-1.15-1.35-.74-2.59-1.5-2.91-2.64-.4-1.42.72-3.05,1.08-3.59s.61-.84.83-1.11m.33-5.58c-2.61,0-4.55,2.85-5.26,3.88s-2.8,4.09-1.76,7.76c.91,3.22,3.73,4.78,5.28,5.64,2.83,1.55,5.33,1.63,9.87,1.76,1.19,0,2.22.06,3.13.06a10.86,10.86,0,0,0,5.69-1.12,11.58,11.58,0,0,0,4.93-5.64c.62-1.44,1.42-3.33.71-5.29a6.65,6.65,0,0,0-3.88-3.52,7.62,7.62,0,0,0-2.94-.59c-2.77,0-5.05,1.46-7.61,1.46a6.12,6.12,0,0,1-2.49-.52c-3-1.29-3.17-3.86-5.64-3.88Z" style="fill:#ccc;stroke:#263238;stroke-miterlimit:10"></path><path d="M234.59,374.66c.11.57.19,1.12.25,1.61.43,3.63-.44,7.57-2.1,9.59a4.11,4.11,0,0,1-3.09,1.59l-.39,0c-2.87,0-5.58-2.51-6.17-5.66.26,0,.55,0,.85,0h.19a11.6,11.6,0,0,0,9-4.64,11.51,11.51,0,0,0,1.44-2.54m-.28-7.83h-.09a3.86,3.86,0,0,0-3.06,2.55c-.56,1.28-.78,2.7-1.42,3.95a6.33,6.33,0,0,1-.56.89,6.68,6.68,0,0,1-5.13,2.65h-.11c-.71,0-1.44-.1-2.15-.1a4,4,0,0,0-1.52.25c-1.88.75-2.44,3.19-2.15,5.19.78,5.52,5.46,10.23,11.14,10.23l.76,0c8.11-.59,10.55-10,9.75-16.72-.31-2.67-1-5.43-2.76-7.42a3.82,3.82,0,0,0-2.7-1.44Z" style="fill:#ccc;stroke:#263238;stroke-miterlimit:10"></path><path d="M240.31,347.62a11.37,11.37,0,0,1,7,2.68c2.69,2.15,4.2,5.35,4.5,9.51.15,2.14.34,4.79-.8,5.79a4.14,4.14,0,0,1-2.64.86,2.92,2.92,0,0,1-1.66-.4,3.9,3.9,0,0,1-.55-1.16,11.41,11.41,0,0,0-4.8-6.17,14.15,14.15,0,0,0-7.59-1.77h-.57a18.71,18.71,0,0,0-3.73.38,18.22,18.22,0,0,1,2.12-4.2c1-1.5,3.19-4.61,7.07-5.35a8.59,8.59,0,0,1,1.67-.16m0-5a14,14,0,0,0-2.6.24c-5.87,1.12-9,5.57-10.22,7.41-3.32,4.78-4.86,11.6-2.82,13a1.36,1.36,0,0,0,.83.25c1.46,0,3.67-1.66,7.68-1.66h.3c1.88,0,3.61,0,5.29,1.06,3.18,1.92,2.24,5,4.93,7.05a7.85,7.85,0,0,0,4.65,1.39,9.08,9.08,0,0,0,5.93-2.1c3-2.63,2.68-6.81,2.46-9.87-.12-1.74-.6-8.44-6.34-13a16.6,16.6,0,0,0-10.09-3.77Z" style="fill:#ccc;stroke:#263238;stroke-miterlimit:10"></path><path d="M202.83,324.16a16.58,16.58,0,0,0-5,1.11c-1.74.62-7.11,2.54-7.06,6a5.25,5.25,0,0,0,4.24,4.58,3.81,3.81,0,0,0,.75.07c1.83,0,3.3-1.19,4.53-2.18,3.08-2.48,5.92-7.06,4.59-8.81a2.55,2.55,0,0,0-2.1-.76Z" style="fill:#ccc;stroke:#263238;stroke-miterlimit:10"></path><path d="M183,333q-.64,0-1.29.06c-6,.61-10.66,5.74-12.34,10.58-.08.24-1.45,4.26-.35,4.93a.47.47,0,0,0,.29.08c.75,0,2.28-1.32,7.11-5.36,5.59-4.68,6.35-5.25,7.76-6,2.81-1.49,4.62-1.76,4.58-2.46-.05-.87-2.8-1.83-5.76-1.83Z" style="fill:#ccc;stroke:#263238;stroke-miterlimit:10"></path><path d="M136.35,413a21.18,21.18,0,0,0,6.16,2.44c.56.12,1.08.22,1.57.29a8,8,0,0,1-1.21,1.26,4.78,4.78,0,0,1-2.33,1.32h0c-1.22,0-3-2.41-4.19-5.31m-4.57-9.24a1.09,1.09,0,0,0-.53.13c-1.8.91-1,5.92-.35,8.46,1,3.8,4.25,10.79,9.52,10.93h.15c2.53,0,4.45-1.61,5.49-2.47,2.84-2.37,5.22-6.71,3.87-8.81-.92-1.44-2.81-.63-6.34-1.41-6.86-1.53-9.74-6.83-11.81-6.83Z" style="fill:#ccc;stroke:#263238;stroke-miterlimit:10"></path><path d="M246.17,320.69a9.54,9.54,0,0,1,6.5,2.24,8.33,8.33,0,0,1,2.63,5.61c.08,4.13-3.35,7.86-5.12,8a12.59,12.59,0,0,1-1.66-1.42,21.3,21.3,0,0,0-10-5.84,20.66,20.66,0,0,0-5.13-.64h-.28a15.76,15.76,0,0,1,5.39-5.82,15.08,15.08,0,0,1,7.62-2.12m0-5A20,20,0,0,0,236,318.57c-6.23,3.82-10.12,11.76-8.11,14.45a2.13,2.13,0,0,0,1.93.78c.94,0,2.14-.2,3.67-.2a15.67,15.67,0,0,1,3.92.48c7.37,1.85,8.36,7.41,12.8,7.41h.24c4.78-.21,10-6.53,9.87-13a13.35,13.35,0,0,0-4.23-9.17,14.37,14.37,0,0,0-9.87-3.55Z" style="fill:#ccc;stroke:#263238;stroke-miterlimit:10"></path><path d="M234.65,402.55a4.53,4.53,0,0,1,1.09.14,5.53,5.53,0,0,1,3.78,4.24c.63,3.25-2.23,6.58-5.1,7.28a7,7,0,0,1-1.54.17,5.05,5.05,0,0,1-3.78-1.46c-1.62-1.82-1.07-5.2.37-7.28a7,7,0,0,1,5.18-3.09m0-5c-4,0-7.44,2.57-9.28,5.24-2.49,3.63-3.42,9.52,0,13.4a9.9,9.9,0,0,0,7.51,3.13,11.65,11.65,0,0,0,2.71-.31c5.51-1.34,9.94-7.21,8.82-13.05a10.48,10.48,0,0,0-7.41-8.1,8.73,8.73,0,0,0-2.35-.31Z" style="fill:#ccc;stroke:#263238;stroke-miterlimit:10"></path><path d="M218.94,422.19a2.79,2.79,0,0,1,1.13.21,5.83,5.83,0,0,1-.65,2,5,5,0,0,1-2.73,2.62c-.25.09-.64.22-1,.31a6.28,6.28,0,0,1,.49-2.79s1-2.16,2.41-2.34l.35,0m0-5a9.71,9.71,0,0,0-1,.06c-4.18.53-6.07,4.65-6.35,5.29-1.25,2.86-1.5,7.44,1.06,9.17a4.22,4.22,0,0,0,2.41.67,10.3,10.3,0,0,0,3.23-.67,10,10,0,0,0,5.64-5.29c.59-1.32,1.9-4.25.35-6.7a6.23,6.23,0,0,0-5.37-2.53Z" style="fill:#ccc;stroke:#263238;stroke-miterlimit:10"></path><path d="M265.33,363.48c1.58,0,4.27,1.58,5.37,3.62,1.31,2.44.19,5.76-.34,7.35a8.37,8.37,0,0,1-1.73,3.06,22.56,22.56,0,0,0-3.43,5.77,23.61,23.61,0,0,0-1.89,8.47c0,.37-.05.85-.09,1.1a7.24,7.24,0,0,1-4.6,1.25c-2.88,0-5.5-1.06-6.39-2.59a4.77,4.77,0,0,1-.18-4.13c.47-1,1.37-1.44,3.46-2.37,2.65-1.17,6.28-2.77,8-7.19a10.26,10.26,0,0,0,.36-6.21,8.46,8.46,0,0,1-.09-3.6c.41-2.56.85-4.07,1.31-4.51a1.14,1.14,0,0,1,.25,0m0-5a5.46,5.46,0,0,0-2.59.6c-2.81,1.49-3.47,5.58-3.88,8.11-.82,5.08,1.09,6,0,8.81-1.94,5-8.65,3.79-11.28,9.16a9.77,9.77,0,0,0,.35,8.82c2,3.46,6.46,5.06,10.69,5.06,3.38,0,6.62-1,8.35-2.95,2.28-2.54.25-4.78,2.82-10.93,2-4.82,3.8-4.73,5.29-9.16.71-2.13,2.32-6.95,0-11.28-1.92-3.57-6.22-6.24-9.75-6.24Z" style="fill:#ccc;stroke:#263238;stroke-miterlimit:10"></path><path d="M282,335.79c2.79,0,4.93.79,6.36,2.35a6.23,6.23,0,0,1,1.88,4.39c-.25,3.46-5.56,6.27-9.25,7.16a17.36,17.36,0,0,1-4,.48,9.54,9.54,0,0,1-6.9-2.39c-1.26-1.22-2.89-3.7-2.54-5s4.42-3.38,8.33-5.31a17,17,0,0,1,3.22-1.39,13.52,13.52,0,0,1,2.89-.3m0-5a18.14,18.14,0,0,0-4.07.44,20.18,20.18,0,0,0-4.23,1.76c-6,2.94-10,4.9-10.93,8.46-1.3,4.75,3.51,9.52,3.87,9.87A14.57,14.57,0,0,0,277,355.14a22.67,22.67,0,0,0,5.16-.61c4.76-1.16,12.55-5,13-11.64.31-4.29-2.61-7.49-3.17-8.1a13.27,13.27,0,0,0-10-4Z" style="fill:#ccc;stroke:#263238;stroke-miterlimit:10"></path><path d="M259.37,409.82a33.6,33.6,0,0,0,.62,4.24,20,20,0,0,0,.66,2.51c.13.4.25.78.43,1.54a25.54,25.54,0,0,1,1,9.1c-.68,5.29-1.69,5.83-1.81,5.87a.35.35,0,0,1-.16,0,6.13,6.13,0,0,1-3.38-1.76c-1.22-1.19-1.69-5.28-2.41-11.47-.55-4.74-.21-5.48-.05-5.84a7.93,7.93,0,0,1,3.59-3.38c.59-.34,1.11-.61,1.55-.83m2.29-5.78c-2.32,0-5.43,1.79-6.33,2.31a12.69,12.69,0,0,0-5.64,5.64c-.66,1.47-1,3.11-.35,8.46.93,8,1.4,12,3.88,14.45a10.76,10.76,0,0,0,6.85,3.17,5.48,5.48,0,0,0,2-.35c3.86-1.5,4.6-7.27,4.94-9.87a30,30,0,0,0-1.06-10.93c-.49-2-.66-2-1.06-3.88-1.13-5.43-.08-7.36-1.41-8.46a2.72,2.72,0,0,0-1.78-.54Z" style="fill:#ccc;stroke:#263238;stroke-miterlimit:10"></path><path d="M236.22,430.29a32.21,32.21,0,0,1,3.38,5.4c.6,1.23,1.86,3.79,1.64,4.32-.29.69-3.07,1.44-4.12,1.72a22.1,22.1,0,0,1-5.58.93c-1.67,0-2.81-.36-3.41-1.07a4.07,4.07,0,0,1-.69-3.63c.16-.08.44-.2.65-.28a14.85,14.85,0,0,0,8.13-7.39m-1.44-7.11a2,2,0,0,0-.6.09c-2,.63-.92,4-4.23,7.4-2.81,2.91-5.13,2.05-6.69,4.58-1.67,2.69-1.09,6.95,1.05,9.52,1.85,2.21,4.59,2.86,7.23,2.86a26.69,26.69,0,0,0,6.87-1.1c2.67-.72,6.17-1.66,7.41-4.58,1.11-2.62-.23-5.34-1.77-8.46-2-4-6.24-10.31-9.27-10.31Z" style="fill:#ccc;stroke:#263238;stroke-miterlimit:10"></path><path d="M299.79,428.21a.66.66,0,0,1,.19,0c1,.7,1.75,5.15-.12,8-.71,1.1-1.69,1.61-5.17,3.08a35.63,35.63,0,0,1-13.83,2.75h-.81a30.06,30.06,0,0,0,7.73-4.54,21.65,21.65,0,0,0,4.05-4.27,9.39,9.39,0,0,1,1.89-2c2.19-1.74,4.74-3,6.07-3m0-5c-4,0-8.58,3.63-9.16,4.09-2.91,2.31-2.65,3.61-6,6.34a28.52,28.52,0,0,1-8.46,4.59c-8,3.11-13.26,2.58-13.39,3.88s5,3,8.81,3.87a41.48,41.48,0,0,0,9.27,1,40.48,40.48,0,0,0,15.76-3.14c3.58-1.51,5.79-2.48,7.4-4.94,3.17-4.85,2.37-13-1.76-15.16a5.42,5.42,0,0,0-2.47-.56Z" style="fill:#ccc;stroke:#263238;stroke-miterlimit:10"></path><path d="M278.83,396.24a8,8,0,0,1,6,2.82c.75,1,.81,2.7.8,7.63,0,6.71-.08,9.12-1.58,10.83a7.89,7.89,0,0,1-5.25,2.61,2.22,2.22,0,0,1-1.06-.22c-1-.49-1.5-2.19-1.79-3.11-.52-1.6-.37-2.65.28-6.4.18-1.06.39-2.25.61-3.65.66-4.29.89-7.16,1-9.06,0-.47.08-1,.12-1.37a3.89,3.89,0,0,1,.85-.08m0-5a7.14,7.14,0,0,0-4.46,1.33c-1.92,1.52-.86,3-2.47,13.39-1,6.52-1.86,8.76-.7,12.34.49,1.51,1.47,4.56,4.23,6a7.15,7.15,0,0,0,3.35.78,12.84,12.84,0,0,0,9-4.3c2.81-3.2,2.81-7,2.82-14.1,0-5.44,0-8.16-1.77-10.58a13,13,0,0,0-10-4.85Z" style="fill:#ccc;stroke:#263238;stroke-miterlimit:10"></path><path d="M295,364.11a29.14,29.14,0,0,1,7.4,1.22c3.07.81,7.71,2,8.54,4.52.76,2.27-.88,5.47-2.25,6.93a21.11,21.11,0,0,0-3.29-2.26c-2.24-1.26-5.31-3-8.73-3a9.54,9.54,0,0,0-3.07.5c-3.68,1.26-5.07,4.26-5.89,6.05a11.37,11.37,0,0,1-.58,1.16H287a3.52,3.52,0,0,1-2.23-.95,4.91,4.91,0,0,1-.68-3.45,13,13,0,0,1,4.38-8.7,10,10,0,0,1,6.54-2m0-5a15,15,0,0,0-9.66,3.14c-6,4.85-8.25,15-4.23,19.39a8.44,8.44,0,0,0,5.88,2.55,5.58,5.58,0,0,0,2.23-.44c3.38-1.47,2.68-5.92,6-7a4.51,4.51,0,0,1,1.46-.23c2.12,0,4.4,1.29,6.29,2.35,3.51,2,3.7,3.47,5.29,3.52h.1c3.76,0,9.36-8,7.3-14.11-1.68-5-7.77-6.64-12-7.75a33.75,33.75,0,0,0-8.67-1.38Z" style="fill:#ccc;stroke:#263238;stroke-miterlimit:10"></path><path d="M282,317.39c3.45,0,6.53,1.07,11.2,2.7,4.93,1.72,6.68,3.17,6.94,3.59a5.17,5.17,0,0,1,.93,3.2,2.44,2.44,0,0,1-1.55.41,3.56,3.56,0,0,1-.89-.11c-.56-.16-.84-.45-1.87-1.93-1.26-1.83-3.16-4.58-7.12-5.52a9.06,9.06,0,0,0-2.16-.27,11,11,0,0,0-4.5,1.12,25.75,25.75,0,0,1-5,1.59,31.6,31.6,0,0,1-5.15.86,1.54,1.54,0,0,1-.4,0,3.08,3.08,0,0,1-.4-2.65c.51-1.31,3.17-2.27,7.93-2.84a18.84,18.84,0,0,1,2.09-.12m0-5a22.53,22.53,0,0,0-2.67.17c-3.19.38-10.16,1.21-12,6-1.08,2.82-.25,6.71,2.12,8.46a5.3,5.3,0,0,0,3.32,1,32.25,32.25,0,0,0,6.19-1c5.45-1.16,6.66-2.59,8.51-2.59a4.77,4.77,0,0,1,1,.12c4.27,1,4.09,6.09,8.81,7.41a8.5,8.5,0,0,0,2.22.29,6.86,6.86,0,0,0,5.54-2.41c2-2.72.6-6.73-.71-8.81-.48-.78-2.05-3-9.51-5.64-4.88-1.7-8.55-3-12.84-3Z" style="fill:#ccc;stroke:#263238;stroke-miterlimit:10"></path><path d="M318.15,340.79a26.17,26.17,0,0,1,11.48,2.68c3.45,1.71,5,2.54,5.92,4.23.81,1.53,1.33,4.32-.82,9a18.67,18.67,0,0,1-4.3,5.95c-.34-.65-.74-1.54-1-2.21-1.55-3.53-3.89-8.85-9.85-11.2a9.3,9.3,0,0,0-3.23-.69,46.16,46.16,0,0,1-5.18-.65c-2.3-.38-5-.84-6.68-1.26a11.48,11.48,0,0,1,2-2.66c2.82-2.81,7.05-3,10.78-3.13l.93,0m0-5-1.13,0c-4.15.17-9.9.39-14.1,4.59-2.05,2-4.83,6.14-3.52,8.81.89,1.82,4.25,2.41,10.93,3.52,6.31,1.06,5.9.47,7.4,1.06,7.51,3,6.75,13.29,11.63,14.1a4,4,0,0,0,.59.05c3.85,0,7.77-6,9.28-9.21.75-1.6,3.66-7.86.71-13.4-1.69-3.17-4.47-4.55-8.11-6.34a31.19,31.19,0,0,0-13.68-3.2Z" style="fill:#ccc;stroke:#263238;stroke-miterlimit:10"></path><path d="M315.52,326.64a2.12,2.12,0,0,1,.44.05,2,2,0,0,1-.9.27.68.68,0,0,1-.17,0l-.14-.11a2.57,2.57,0,0,1,.54-.17l.23,0m0-5a7.61,7.61,0,0,0-1,.07c-.27,0-4.21.69-4.94,3.88-.55,2.4,1.08,4.65,2.82,5.64a5.28,5.28,0,0,0,2.62.68,7.14,7.14,0,0,0,5.49-2.79,4.76,4.76,0,0,0,1.06-3.53c-.45-2.34-3.35-3.95-6.09-3.95Z" style="fill:#ccc;stroke:#263238;stroke-miterlimit:10"></path><path d="M357.83,360.74a2.53,2.53,0,0,1,1.56.49c.82.65.71,2.26.68,2.66l-1.42-1.18c-.42-.36-1.32-1.11-2-1.69a2.13,2.13,0,0,1,1.14-.28m0-5A6.57,6.57,0,0,0,353,357.7a5.69,5.69,0,0,0-1.41,4.58c.22,1,.77,1.62,3.88,4.23,4.06,3.42,4.89,3.89,5.45,3.89h.19c2.2-.3,3.55-3.55,3.88-5.64.08-.55.69-4.87-2.47-7.4a7.51,7.51,0,0,0-4.67-1.58Z" style="fill:#ccc;stroke:#263238;stroke-miterlimit:10"></path><path d="M344.59,371.4l.2,0a3.66,3.66,0,0,1,2,1.6,4,4,0,0,1,.8,2.73,6.89,6.89,0,0,1-1.95,2.3,11.64,11.64,0,0,1-4.3,2.48,25.23,25.23,0,0,1-2.79.94,4.89,4.89,0,0,1-1.1-3.21c.06-2.23,2.41-4,3.68-5,1.11-.85,2.5-1.9,3.41-1.9m0-5c-2.58,0-4.72,1.62-6.42,2.9s-5.53,4.19-5.64,8.81c-.07,3.19,1.6,7.13,4.59,8.11a4,4,0,0,0,1.32.21,14.61,14.61,0,0,0,4.67-1.27,16.41,16.41,0,0,0,6-3.52c1.47-1.39,2.93-2.76,3.39-4.84.93-4.13-2.44-9.6-6.91-10.32a6.83,6.83,0,0,0-1-.08Z" style="fill:#ccc;stroke:#263238;stroke-miterlimit:10"></path><path d="M323.28,380.91a5.55,5.55,0,0,1,.29.48,6,6,0,0,1,.07,4.45c-.7,2-2.23,4.08-4.82,6.5a24.05,24.05,0,0,1-9.16,5.79,13,13,0,0,1-3.67.55,9,9,0,0,1-4.92-1.31,5.87,5.87,0,0,1-2.72-5.61h.07c1,0,2.1.11,3.27.22,1.44.13,2.93.26,4.5.26a16.65,16.65,0,0,0,7.77-1.68c3.5-1.8,5.87-5,7.77-7.61.55-.74,1.07-1.45,1.55-2m-.32-5.39a3.31,3.31,0,0,0-1.67.44,6.35,6.35,0,0,0-1.57,1.45c-2.32,2.7-4.6,6.95-8,8.72a11.72,11.72,0,0,1-5.49,1.13c-2.65,0-5.38-.48-7.88-.48a6.15,6.15,0,0,0-2.73.55,4.59,4.59,0,0,0-2,2.84c-1.2,4.24,1.05,9,4.75,11.38a14,14,0,0,0,7.62,2.1,17.72,17.72,0,0,0,5.11-.76A29.09,29.09,0,0,0,322.21,396a22,22,0,0,0,6.13-8.5,11,11,0,0,0-.32-8.3,8,8,0,0,0-1.13-1.7,5.56,5.56,0,0,0-3.93-2Z" style="fill:#ccc;stroke:#263238;stroke-miterlimit:10"></path><path d="M338.49,396.56a6.05,6.05,0,0,1,.63,0c-.14.58-.32,1.25-.46,1.78-1,3.85-1.6,5.79-3.43,7.78-3.67,4-8.81,4-10.5,4h-.13a3.46,3.46,0,0,1-1.61-.25,3.93,3.93,0,0,1-1-.71,36.62,36.62,0,0,0,5.31-3.65,27.21,27.21,0,0,0,5.48-6.15c.9-1.32,1.1-1.59,2-2a9,9,0,0,1,3.76-.85m0-5a14,14,0,0,0-6,1.36c-4,2-3.24,4.44-8.46,8.81-4.55,3.81-7.43,3.86-7.75,6.35s2.12,5.2,4.58,6.34a8.29,8.29,0,0,0,3.7.71h.18c2,0,9-.09,14.1-5.64,2.74-3,3.55-6,4.58-9.87.81-3,1.22-4.66.36-6s-3-2.07-5.33-2.07Z" style="fill:#ccc;stroke:#263238;stroke-miterlimit:10"></path><path d="M359.14,390.09a4.49,4.49,0,0,1,.64,0c2.13.26,4.34,1.73,4.47,3s-2.18,3.18-4.33,4.06a11.09,11.09,0,0,1-3.86.75c-.6,0-2.05-.07-2.53-.76-.67-.95-.08-3.36,1.21-5a5.71,5.71,0,0,1,4.4-2.1m0-5a10.69,10.69,0,0,0-8.27,3.95c-2.23,2.77-3.75,7.59-1.41,10.93,1.5,2.15,4.05,2.88,6.6,2.88a15.78,15.78,0,0,0,5.73-1.12c2.77-1.13,7.89-4.4,7.41-9.16-.43-4.26-5.06-7-8.82-7.41a10.19,10.19,0,0,0-1.24-.07Z" style="fill:#ccc;stroke:#263238;stroke-miterlimit:10"></path><path d="M367.51,373.45c-2.27,0-4.75,1.58-5,3.28s2,2.53,5.64,7.41c1.91,2.53,2.86,3.79,3.17,5.28.81,3.86-1.87,5.69-.7,8.82.68,1.84,2.49,3.56,3.9,3.56a1.24,1.24,0,0,0,.33,0c2.44-.51,3.92-6.63,3.17-11.63-.29-1.94-1.6-4.46-4.23-9.52-3.08-5.92-4.08-6.77-5.29-7.05a4.6,4.6,0,0,0-1-.11Z" style="fill:#ccc;stroke:#263238;stroke-miterlimit:10"></path><path d="M350.19,415.39a10,10,0,0,1-1.58,3.89c-1.37,1.89-3.53,2.6-8.7,4.16a27.84,27.84,0,0,1-4.17.9,22.62,22.62,0,0,0,2.9-1.21,19.61,19.61,0,0,0,6.34-5,6.08,6.08,0,0,1,3-2.19,13.51,13.51,0,0,1,2.23-.57m1.26-5.08a16.41,16.41,0,0,0-5.17,1c-5.14,1.84-4.52,4.73-9.87,7.4-4.88,2.44-7.83,1.26-9.87,4.23-1,1.5-1.68,3.85-.7,5.29.39.59,1.32,1.41,5.64,1.41h0a34.51,34.51,0,0,0,9.85-1.41c5.49-1.66,8.87-2.68,11.28-6a15.34,15.34,0,0,0,2.47-6c.44-2.18.73-3.57,0-4.59s-2.08-1.32-3.65-1.32Z" style="fill:#ccc;stroke:#263238;stroke-miterlimit:10"></path><path d="M305.74,412.15a5.14,5.14,0,0,1-3.72,2.59,4.61,4.61,0,0,1,1.22-1.72,4.52,4.52,0,0,1,2.5-.87m.27-5a9.57,9.57,0,0,0-5.91,2c-2.73,2.22-4.4,6.79-2.46,9.16a4.58,4.58,0,0,0,3.67,1.45,10.52,10.52,0,0,0,5.14-1.45c3.32-2,5.8-6.59,4.23-9.16-.82-1.33-2.64-2-4.67-2Z" style="fill:#ccc;stroke:#263238;stroke-miterlimit:10"></path><path d="M316.82,427.39l.18,0c1,.22,2.15,2.46,2.1,4.55,0,.81-.42,3.18-1.53,3.64a1.81,1.81,0,0,1-.72.13,2.38,2.38,0,0,1-1.24-.34,4.67,4.67,0,0,1-1.32-3.49,5.37,5.37,0,0,1,1.24-4,2.59,2.59,0,0,1,1.29-.48m0-5a7.63,7.63,0,0,0-4.38,1.55c-4.29,3.46-4.16,12.4.35,15.51a7.25,7.25,0,0,0,4.06,1.22,6.85,6.85,0,0,0,2.64-.51c4.36-1.83,4.57-7.63,4.58-8.11.09-3.8-2-8.64-6-9.52a5.59,5.59,0,0,0-1.26-.14Z" style="fill:#ccc;stroke:#263238;stroke-miterlimit:10"></path><path d="M370.22,410.18a4.7,4.7,0,0,1,2.92,1.34,62.75,62.75,0,0,1-6.82,5.22l-1.65,1.16c.29-.62.63-1.26,1-1.95,1.72-2.88,3.35-5.61,4.26-5.75l.25,0m0-5a6.8,6.8,0,0,0-1,.08c-3.21.5-4.92,3.36-7.76,8.11a26.66,26.66,0,0,0-3.17,8.1c-.66,2.67-1,4-.35,4.59a1.36,1.36,0,0,0,.95.31c2.43,0,7.54-3.63,10.33-5.6,6.3-4.47,9.45-6.7,9.16-9.52-.31-3.11-4.4-6.07-8.14-6.07Z" style="fill:#ccc;stroke:#263238;stroke-miterlimit:10"></path><path d="M211.56,440.47h.16a2.5,2.5,0,0,1,.44,1,10.7,10.7,0,0,1-2.25-.6,4.28,4.28,0,0,1,1.65-.42m0-5c-4.09,0-8.89,3.73-8.75,6.1.08,1.43,2,2.39,3.53,3.17a16.7,16.7,0,0,0,6.38,1.73,4.33,4.33,0,0,0,3.49-1.38c1.91-2.3.89-7-1.77-8.81a5.08,5.08,0,0,0-2.88-.81Z" style="fill:#ccc;stroke:#263238;stroke-miterlimit:10"></path><path d="M149,428.89h0l.42,0a4.79,4.79,0,0,1,2.5,1.36,26.74,26.74,0,0,1-3.4-1.35,3.87,3.87,0,0,1,.48,0m0-5c-3.69,0-7.67,2.14-7.86,4.28-.32,3.6,10,8.47,19.6,8.47h.49c1.66,0,10.29-.18,11.28-3.88.63-2.31-1.81-5.76-4.58-6.34a3.3,3.3,0,0,0-.75-.08c-2.32,0-3.44,2.43-6.65,2.55h-.23c-4.28,0-5.52-4.42-10.35-4.94-.31,0-.63-.05-1-.05Z" style="fill:#ccc;stroke:#263238;stroke-miterlimit:10"></path></g><g id="freepik--Fishes--inject-40"><path d="M200.32,63.39s-.5-2.23,1.48-6.44,4.22-6.45,1.49-8.44S188.16,42.07,177,43.06s-16.62,4.71-19.6,9.17S152.46,64.88,151,66.86s-13.89,3-13.89,3l-.25,2s4.47,0,6.95,1.24,8.18,4.72,11.4,6.45,12.4,5,16.62,6.95,6.94,3,6.94,3l-.5-2s12.65.74,18.11-.25,7.93-1.74,7.19-4.46a94.62,94.62,0,0,0-3.72-9.18s6.69,6,9.42,5.21,4-9.18,3-16.62-3.47-6.2-4.71-4.71S200.32,63.39,200.32,63.39Z" style="fill:#fff;stroke:#263238;stroke-miterlimit:10"></path><path d="M212.22,62.15c-1-7.44-3.47-6.2-4.71-4.71s-7.19,6-7.19,6-.5-2.23,1.48-6.44,4.22-6.45,1.49-8.44c-1.63-1.18-6.74-3.26-13-4.52a7.69,7.69,0,0,0-2.49,6c.13,5.18,2.22,17.39,1,23.43-1.14,5.61-3.88,11.32-1.89,14.28a59.28,59.28,0,0,0,9.42-.51c5.45-1,7.93-1.74,7.19-4.46a94.62,94.62,0,0,0-3.72-9.18s6.69,6,9.42,5.21S213.21,69.59,212.22,62.15Z" style="fill:#08AEEA;stroke:#263238;stroke-miterlimit:10"></path><path d="M212.22,62.15c-1-7.44-3.47-6.2-4.71-4.71s-7.19,6-7.19,6a5.7,5.7,0,0,0-.65,2.89c.25,1.11,1.6,1.72,1.23,2.71s-1.85,3.94-1.85,3.94l1,1.2-.26-.57s6.69,6,9.42,5.21S213.21,69.59,212.22,62.15Z" style="fill:#ccc;stroke:#263238;stroke-miterlimit:10"></path><path d="M178.78,43c-1.85,1.65-5.3,5.27-5.49,7.42-.25,2.71.61,15.54-.25,20.1s0,9.86,0,13.07a8.54,8.54,0,0,1-.57,3.23c3.83,1.77,6.27,2.66,6.27,2.66l-.49-2,.5,0-.53-1V82.92c0-2.22.86-20.59.74-21.82a91.15,91.15,0,0,1,.24-12.7c.37-2.35,2.84-4.43,4.14-5.38A43.32,43.32,0,0,0,178.78,43Z" style="fill:#08AEEA;stroke:#263238;stroke-miterlimit:10"></path><path d="M168.34,44.66a26.12,26.12,0,0,0-2.89,1.07,22.73,22.73,0,0,0-2.15,4.52c-1.48,3.7-.62,8.38-2.1,12.33a22.43,22.43,0,0,0-1.48,11.22,59.5,59.5,0,0,0,1.48,8.33l4.28,1.69c-.49-1.93-1.82-7-1.19-8.79.74-2.1.12-5-.25-6.66s-.49-6.66.62-9.12.74-6.66.74-9.86C165.4,47.64,166.94,45.89,168.34,44.66Z" style="fill:#08AEEA;stroke:#263238;stroke-miterlimit:10"></path><path d="M153.68,76.76a14.53,14.53,0,0,1,.25-5.18c.37-1.11,1.48-2.84,1.36-3.82s.37-2.47,1.48-4.32.49-3.2.49-6.29A34.86,34.86,0,0,1,158,51.4c-.2.28-.4.55-.59.83a24.42,24.42,0,0,0-1.35,2.4c-.07.74-.14,1.58-.28,2.65-.37,2.71-1.48,4.56-2.1,6.28s-.12,2.47-1.11,4.69-.74,3.82-.37,6.9a25.34,25.34,0,0,1,.22,2.81c.75.44,1.48.85,2.12,1.2A12.34,12.34,0,0,1,153.68,76.76Z" style="fill:#08AEEA;stroke:#263238;stroke-miterlimit:10"></path><path d="M156.15,67.63a1.48,1.48,0,1,1-1.48-1.48A1.48,1.48,0,0,1,156.15,67.63Z" style="fill:#263238;stroke:#263238;stroke-miterlimit:10"></path><path d="M166.51,72.93s6.41-4.19,7.15-3.32,1.72,7.52.49,8.38-7.27-1.73-7.27-1.73Z" style="fill:#ccc;stroke:#263238;stroke-miterlimit:10"></path><path d="M298.64,53s-.36-1.63,1.09-4.7,3.07-4.7,1.08-6.15-11-4.7-19.16-4-12.12,3.44-14.29,6.69-3.61,9.22-4.7,10.67-10.12,2.17-10.12,2.17l-.18,1.44a14.21,14.21,0,0,1,5.06.91c1.81.9,6,3.43,8.32,4.7s9,3.61,12.11,5.06S282.91,72,282.91,72l-.36-1.45s9.22.55,13.2-.18,5.78-1.26,5.24-3.25a67.28,67.28,0,0,0-2.71-6.69s4.88,4.34,6.87,3.8,2.89-6.69,2.17-12.12-2.53-4.52-3.44-3.43A58.55,58.55,0,0,1,298.64,53Z" style="fill:#fff;stroke:#263238;stroke-miterlimit:10"></path><path d="M307.32,52.13c-.72-5.42-2.53-4.52-3.44-3.43A58.55,58.55,0,0,1,298.64,53s-.36-1.63,1.09-4.7,3.07-4.7,1.08-6.15c-1.19-.87-4.91-2.38-9.46-3.3a5.62,5.62,0,0,0-1.81,4.38c.09,3.78,1.62,12.68.72,17.08-.83,4.09-2.83,8.26-1.38,10.42a43.22,43.22,0,0,0,6.87-.38c4-.72,5.78-1.26,5.24-3.25a67.28,67.28,0,0,0-2.71-6.69s4.88,4.34,6.87,3.8S308,57.56,307.32,52.13Z" style="fill:#08AEEA;stroke:#263238;stroke-miterlimit:10"></path><path d="M307.32,52.13c-.72-5.42-2.53-4.52-3.44-3.43A58.55,58.55,0,0,1,298.64,53a4.15,4.15,0,0,0-.47,2.1c.18.81,1.17,1.26.9,2S297.72,60,297.72,60l.75.87-.19-.41s4.88,4.34,6.87,3.8S308,57.56,307.32,52.13Z" style="fill:#ccc;stroke:#263238;stroke-miterlimit:10"></path><path d="M282.94,38.13c-1.35,1.21-3.86,3.85-4,5.41-.18,2,.45,11.33-.18,14.66s0,7.19,0,9.52a6.19,6.19,0,0,1-.42,2.36c2.79,1.29,4.57,1.94,4.57,1.94l-.36-1.45.37,0-.39-.71V67.27c0-1.61.63-15,.54-15.91a66.78,66.78,0,0,1,.18-9.25c.26-1.72,2.07-3.23,3-3.92A30.84,30.84,0,0,0,282.94,38.13Z" style="fill:#08AEEA;stroke:#263238;stroke-miterlimit:10"></path><path d="M275.33,39.38a19.84,19.84,0,0,0-2.11.78,16.56,16.56,0,0,0-1.56,3.29c-1.08,2.7-.45,6.12-1.53,9a16.37,16.37,0,0,0-1.08,8.18,43.38,43.38,0,0,0,1.07,6.08l3.12,1.23c-.35-1.41-1.32-5.11-.87-6.41.54-1.53.09-3.68-.18-4.85s-.36-4.86.45-6.65.54-4.86.54-7.19C273.18,41.55,274.31,40.28,275.33,39.38Z" style="fill:#08AEEA;stroke:#263238;stroke-miterlimit:10"></path><path d="M264.64,62.78a10.5,10.5,0,0,1,.18-3.78c.27-.8,1.08-2.06,1-2.78a5.62,5.62,0,0,1,1.08-3.15c.81-1.35.36-2.33.36-4.58a25.21,25.21,0,0,1,.54-4.19l-.43.6a16.78,16.78,0,0,0-1,1.75c-.05.54-.1,1.15-.21,1.93a19.38,19.38,0,0,1-1.53,4.58c-.45,1.26-.09,1.8-.8,3.42s-.54,2.78-.27,5a19.42,19.42,0,0,1,.15,2c.55.32,1.08.61,1.55.87A9.14,9.14,0,0,1,264.64,62.78Z" style="fill:#08AEEA;stroke:#263238;stroke-miterlimit:10"></path><path d="M266.44,56.13a1.08,1.08,0,1,1-1.08-1.08A1.08,1.08,0,0,1,266.44,56.13Z" style="fill:#263238;stroke:#263238;stroke-miterlimit:10"></path><path d="M274,60s4.68-3.05,5.22-2.42,1.25,5.48.36,6.11-5.31-1.26-5.31-1.26Z" style="fill:#ccc;stroke:#263238;stroke-miterlimit:10"></path><path d="M329.79,115.33s-.37-1.63,1.08-4.7,3.07-4.71,1.09-6.15-11-4.7-19.17-4-12.11,3.44-14.28,6.69-3.62,9.22-4.7,10.67S283.68,120,283.68,120l-.18,1.44a14.26,14.26,0,0,1,5.07.91c1.8.9,6,3.43,8.31,4.7s9,3.61,12.11,5.06,5.07,2.17,5.07,2.17l-.36-1.45s9.22.55,13.19-.18,5.79-1.26,5.25-3.25a69.2,69.2,0,0,0-2.72-6.69s4.89,4.34,6.87,3.8,2.9-6.69,2.17-12.12S335.93,109.9,335,111A60,60,0,0,1,329.79,115.33Z" style="fill:#fff;stroke:#263238;stroke-miterlimit:10"></path><path d="M338.46,114.42c-.72-5.42-2.53-4.52-3.43-3.43a60,60,0,0,1-5.24,4.34s-.37-1.63,1.08-4.7,3.07-4.71,1.09-6.15c-1.2-.87-4.92-2.38-9.46-3.3a5.56,5.56,0,0,0-1.81,4.38c.09,3.78,1.62,12.68.72,17.08-.84,4.09-2.83,8.26-1.38,10.42a43.08,43.08,0,0,0,6.86-.38c4-.72,5.79-1.26,5.25-3.25a69.2,69.2,0,0,0-2.72-6.69s4.89,4.34,6.87,3.8S339.19,119.85,338.46,114.42Z" style="fill:#08AEEA;stroke:#263238;stroke-miterlimit:10"></path><path d="M338.46,114.42c-.72-5.42-2.53-4.52-3.43-3.43a60,60,0,0,1-5.24,4.34,4.15,4.15,0,0,0-.47,2.1c.18.81,1.16,1.26.9,2s-1.35,2.87-1.35,2.87l.74.87c-.11-.26-.19-.41-.19-.41s4.89,4.34,6.87,3.8S339.19,119.85,338.46,114.42Z" style="fill:#ccc;stroke:#263238;stroke-miterlimit:10"></path><path d="M314.09,100.42c-1.35,1.21-3.87,3.84-4,5.41-.18,2,.45,11.33-.18,14.65s0,7.2,0,9.53a6.19,6.19,0,0,1-.42,2.36c2.8,1.29,4.58,1.94,4.58,1.94l-.36-1.45.36,0-.38-.71v-2.61c0-1.62.63-15,.54-15.91a68.28,68.28,0,0,1,.17-9.26c.27-1.71,2.07-3.22,3-3.91A30.66,30.66,0,0,0,314.09,100.42Z" style="fill:#08AEEA;stroke:#263238;stroke-miterlimit:10"></path><path d="M306.47,101.67a17.07,17.07,0,0,0-2.1.78,15.91,15.91,0,0,0-1.57,3.29c-1.08,2.7-.45,6.12-1.53,9a16.37,16.37,0,0,0-1.08,8.18,43.35,43.35,0,0,0,1.08,6.08l3.12,1.23c-.36-1.41-1.33-5.11-.87-6.41.54-1.53.09-3.69-.18-4.85s-.36-4.86.45-6.66.54-4.85.54-7.19C304.33,103.84,305.45,102.57,306.47,101.67Z" style="fill:#08AEEA;stroke:#263238;stroke-miterlimit:10"></path><path d="M295.79,125.07a10.5,10.5,0,0,1,.18-3.78c.27-.81,1.08-2.06,1-2.78a5.62,5.62,0,0,1,1.08-3.15c.8-1.35.36-2.34.36-4.58a25.21,25.21,0,0,1,.54-4.19c-.15.19-.3.4-.43.6a15.15,15.15,0,0,0-1,1.75c0,.54-.1,1.15-.2,1.93a19.54,19.54,0,0,1-1.53,4.58c-.45,1.26-.09,1.8-.81,3.42s-.54,2.78-.27,5a20.22,20.22,0,0,1,.16,2l1.55.87A8.5,8.5,0,0,1,295.79,125.07Z" style="fill:#08AEEA;stroke:#263238;stroke-miterlimit:10"></path><path d="M297.59,118.42a1.08,1.08,0,1,1-2.16,0,1.08,1.08,0,1,1,2.16,0Z" style="fill:#263238;stroke:#263238;stroke-miterlimit:10"></path><path d="M305.14,122.28s4.67-3,5.21-2.42,1.26,5.48.36,6.11-5.3-1.26-5.3-1.26Z" style="fill:#ccc;stroke:#263238;stroke-miterlimit:10"></path></g><g id="freepik--Bubbles--inject-40"><circle cx="354.11" cy="139.28" r="10.71" transform="translate(159.73 466.4) rotate(-80.75)" style="fill:none;stroke:#263238;stroke-miterlimit:10"></circle><path d="M360.17,134.72a2.86,2.86,0,1,1-2.86-2.85A2.86,2.86,0,0,1,360.17,134.72Z" style="fill:none;stroke:#263238;stroke-miterlimit:10"></path><circle cx="387.22" cy="190.23" r="10.71" style="fill:none;stroke:#263238;stroke-miterlimit:10"></circle><circle cx="390.41" cy="185.68" r="2.86" style="fill:none;stroke:#263238;stroke-miterlimit:10"></circle><circle cx="427.14" cy="186.07" r="10.71" style="fill:none;stroke:#263238;stroke-miterlimit:10"></circle><circle cx="430.34" cy="181.52" r="2.86" style="fill:none;stroke:#263238;stroke-miterlimit:10"></circle><circle cx="386.18" cy="75.29" r="7.24" transform="translate(0.44 152.81) rotate(-22.4)" style="fill:none;stroke:#263238;stroke-miterlimit:10"></circle><circle cx="388.35" cy="72.21" r="1.93" style="fill:none;stroke:#263238;stroke-miterlimit:10"></circle><circle cx="342.59" cy="97.69" r="7.24" transform="matrix(0.16, -0.99, 0.99, 0.16, 191.4, 420.26)" style="fill:none;stroke:#263238;stroke-miterlimit:10"></circle><circle cx="344.75" cy="94.61" r="1.93" style="fill:none;stroke:#263238;stroke-miterlimit:10"></circle><circle cx="430.01" cy="226" r="7.24" style="fill:none;stroke:#263238;stroke-miterlimit:10"></circle><circle cx="432.17" cy="222.93" r="1.93" style="fill:none;stroke:#263238;stroke-miterlimit:10"></circle><path d="M458.13,163.58a7.24,7.24,0,1,1-7.24-7.24A7.24,7.24,0,0,1,458.13,163.58Z" style="fill:none;stroke:#263238;stroke-miterlimit:10"></path><path d="M455,160.5a1.93,1.93,0,1,1-1.93-1.93A1.92,1.92,0,0,1,455,160.5Z" style="fill:none;stroke:#263238;stroke-miterlimit:10"></path><circle cx="75.23" cy="273.96" r="7.24" transform="translate(-171.68 133.44) rotate(-45)" style="fill:none;stroke:#263238;stroke-miterlimit:10"></circle><path d="M79.32,270.88A1.93,1.93,0,1,1,77.39,269,1.92,1.92,0,0,1,79.32,270.88Z" style="fill:none;stroke:#263238;stroke-miterlimit:10"></path></g><g id="freepik--Optopus--inject-40"><path d="M238,285.42A59.54,59.54,0,0,1,208.48,316a53.27,53.27,0,0,1-17.32,4.8c-20.45,2-41.87-9.06-51.13-27.41A45,45,0,0,1,136,281.24a49.61,49.61,0,0,1,1-22.14A47.73,47.73,0,0,1,141,249c8.11-14.89,22.92-21.66,39-24.79,10.66-2.08,21.59-3.09,31.85-6.63,4.42-1.53,8.87-3.66,11.63-7.43,4.75-6.45,2.36-16.89-4.71-20.64a21.42,21.42,0,0,0-8.21-2.13c-3.21-.31-6.53-.33-9.7-.92-1.18-.22-2.48-.63-3-1.7-.84-1.69.82-3.55,2.43-4.53,8.8-5.41,21.08-3.79,28.7,3.18s10.38,18.52,7.47,28.43-11.06,17.93-20.78,21.43c-11,3.95-23.27,2.48-34.32,6.18a32.58,32.58,0,0,0-17.08,12.81,25,25,0,0,0-3.12,20.83c3.11,9.67,12.5,16,22.11,19.3A63.9,63.9,0,0,0,238,285.42Z" style="fill:#08AEEA;stroke:#263238;stroke-miterlimit:10"></path><path d="M212.56,310.88s-1.73,2.22-4.08,5.11a53.27,53.27,0,0,1-17.32,4.8c-20.45,2-41.87-9.06-51.13-27.41A45,45,0,0,1,136,281.24c3.51,8.65,11.38,15.3,19.16,20.21,15.59,9.84,35.69,7.38,43.48,6.56A24.69,24.69,0,0,1,212.56,310.88Z" style="fill:#fff;stroke:#263238;stroke-miterlimit:10"></path><path d="M174.61,311c2.18.13,3.86,1.71,3.75,3.55s-2,3.22-4.13,3.1-3.85-1.71-3.75-3.55S172.44,310.83,174.61,311Z" style="fill:#fff;stroke:#263238;stroke-miterlimit:10"></path><path d="M163.27,307.16c2,.71,3.23,2.7,2.62,4.44s-2.76,2.56-4.82,1.84-3.23-2.71-2.63-4.44S161.21,306.44,163.27,307.16Z" style="fill:#fff;stroke:#263238;stroke-miterlimit:10"></path><path d="M151.88,300.52c1.72,1.33,2.2,3.59,1.08,5s-3.44,1.55-5.16.22-2.21-3.6-1.08-5S150.16,299.18,151.88,300.52Z" style="fill:#fff;stroke:#263238;stroke-miterlimit:10"></path><path d="M143.56,294.49a2.41,2.41,0,1,1-3.69.15A2.63,2.63,0,0,1,143.56,294.49Z" style="fill:#fff;stroke:#263238;stroke-miterlimit:10"></path><path d="M206,225.57c-19.69,6.56-43.24-2.73-62.84,23.24A52.72,52.72,0,0,0,137,259.1,47.73,47.73,0,0,1,141,249c8.11-14.89,22.92-21.66,39-24.79,10.66-2.08,21.59-3.09,31.85-6.63,4.42-1.53,8.87-3.66,11.63-7.43,4.75-6.45,2.36-16.89-4.71-20.64a21.42,21.42,0,0,0-8.21-2.13c4.08-.83,14.51-1.76,18.43,9C233.88,210,225.68,219,206,225.57Z" style="fill:#fff;stroke:#263238;stroke-miterlimit:10"></path><path d="M183.59,223.09a2.41,2.41,0,1,1-2.79,2.41A2.62,2.62,0,0,1,183.59,223.09Z" style="fill:#fff;stroke:#263238;stroke-miterlimit:10"></path><path d="M196.42,221.61a2.42,2.42,0,1,1-2.8,2.41A2.63,2.63,0,0,1,196.42,221.61Z" style="fill:#fff;stroke:#263238;stroke-miterlimit:10"></path><path d="M208.75,218.65a2.42,2.42,0,1,1-2.8,2.41A2.63,2.63,0,0,1,208.75,218.65Z" style="fill:#fff;stroke:#263238;stroke-miterlimit:10"></path><path d="M219.93,213a2.42,2.42,0,1,1-1.28,3.47A2.63,2.63,0,0,1,219.93,213Z" style="fill:#fff;stroke:#263238;stroke-miterlimit:10"></path><path d="M170.43,224.73a2.42,2.42,0,1,1-1.77,3.25A2.63,2.63,0,0,1,170.43,224.73Z" style="fill:#fff;stroke:#263238;stroke-miterlimit:10"></path><ellipse cx="158.96" cy="230.89" rx="2.82" ry="2.38" transform="matrix(0.93, -0.36, 0.36, 0.93, -73.08, 73.61)" style="fill:#fff;stroke:#263238;stroke-miterlimit:10"></ellipse><path d="M149.22,235.58a2.42,2.42,0,1,1-1.76,3.25A2.62,2.62,0,0,1,149.22,235.58Z" style="fill:#fff;stroke:#263238;stroke-miterlimit:10"></path><path d="M224.2,204.35a2.41,2.41,0,1,1,.72,3.62A2.62,2.62,0,0,1,224.2,204.35Z" style="fill:#fff;stroke:#263238;stroke-miterlimit:10"></path><ellipse cx="254.92" cy="250.6" rx="9.45" ry="9.67" transform="translate(-38.21 46) rotate(-9.6)" style="fill:#fff;stroke:#263238;stroke-miterlimit:10"></ellipse><path d="M470.06,431.09a14.44,14.44,0,0,1-1.67,5.59c-3.26,6.16-9.25,9.58-15.36,12.19a92.12,92.12,0,0,1-46.59,6.74,1.08,1.08,0,0,1,0-2.15c16.45-1.7,32.94-5.93,44.53-17.63a5.82,5.82,0,0,0,1.72-3.77c.17-3.59-3.3-5-6.21-6a76.63,76.63,0,0,1-17.88-9.31c-4.72-3.31-9.38-7.79-9.81-13.54-.41-5.58,3.27-10.51,6.33-15.2,3.93-6.05,9.37-15.25,10.85-23.87,1.17-6.85-.15-13.33-6.69-17.59-9.15-6-21.78-6.45-32.31-5.92-10.07.51-19.77,4.26-29.77,5.24a42.41,42.41,0,0,1-8.05.09c-10.65-1-21.4-5.23-30.82-10.11a110.85,110.85,0,0,1-10.86-6.45c-11.52-7.82-23.75-19.82-16.33-32-1.65,2.71,37.51,16.87,41.38,17.58,19.54,3.59,40.93-5.21,60.74-3.63q2.73.21,5.45.56c16.45,2.07,32.23,7.8,42.66,21.59,16.66,22-2.4,43.14-11.37,63.23-5.19,11.61,6.55,13.9,15.37,17.34C462.87,416.92,470.77,422,470.06,431.09Z" style="fill:#08AEEA;stroke:#263238;stroke-miterlimit:10"></path><path d="M437.28,361.32a12,12,0,0,1-1.28,2.8c1.17-6.85-.15-13.33-6.69-17.59-9.15-6-21.78-6.45-32.31-5.92-10.07.51-19.77,4.26-29.77,5.24-15.19-5.05-32.47-10.78-49.73-16.47-11.52-7.82-23.75-19.82-16.33-32-1.65,2.71,37.51,16.87,41.38,17.58,19.54,3.59,40.93-5.21,60.74-3.63q2.73.21,5.45.56c-3,3.06-6.48,7.62-6.19,11.85.48,7.23,10.12,11.09,18.33,12.54S441.62,347.82,437.28,361.32Z" style="fill:#263238;stroke:#263238;stroke-miterlimit:10"></path><path d="M447.9,377.84a5.53,5.53,0,0,1-2.49-.62c-4.4-1.82-10.49-1.89-12.86,2.24-1.66,2.9-.67,6.65,1.16,9.44s4.43,5,6.32,7.76c5.91,8.55,3.61,21.19-3.87,28.41s-18.94,9.34-29.08,7.08a32.76,32.76,0,0,1-8.21-3l0,0c-5-2.63-9.23-6.62-11.26-11.85-6.75-17.29,12.68-36.44,6.72-54-1.59-4.68-4.85-8.62-8.56-11.88h0l0,0a49.47,49.47,0,0,0-18.15-10.11c-1.29-.4-2.6-.74-3.92-1-5.46-1.18-11.1-1.43-16.59-2.45-1.19-.21-2.38-.46-3.55-.77-8.82-2.32-16.44-7.44-23.49-13.37-3.29-2.77-6.45-5.71-9.55-8.63a46.53,46.53,0,0,1-7.34-8.25c-1.89-3-3-6.2-1.94-9.38a34.66,34.66,0,0,1,3.37,1.74c5.28,3,10.2,7.14,16.29,9.32a113.51,113.51,0,0,0,24.25,5.29c7.4.93,14.93,1.59,22.33,2.74,8.64,1.33,17.1,3.31,24.93,7.12,10,4.88,18.71,12.83,23.48,22.9s5.31,22.29.49,32.34c-3,6.27-7.91,11.52-10.58,17.94s-2.23,15.11,3.65,18.81c5.2,3.27,12.27,1.09,17-2.87,2.61-2.19,4.91-5.25,4.7-8.65-.23-3.64-3.2-6.41-5.07-9.55a16.84,16.84,0,0,1,19.58-24.63c1.87.59,3.76,1.65,4.52,3.45S449.85,377.67,447.9,377.84Z" style="fill:#08AEEA;stroke:#263238;stroke-miterlimit:10"></path><path d="M402.06,369.54c-2.87,28.3-17.64,32.81-11.9,48.81a23.08,23.08,0,0,0,8.67,10.77c-5-2.63-9.23-6.62-11.26-11.85-6.75-17.29,12.68-36.44,6.72-54-1.59-4.69-4.87-8.64-8.59-11.91a49.47,49.47,0,0,0-18.15-10.11l-1.18-7.38S404.93,341.24,402.06,369.54Z" style="fill:#fff;stroke:#263238;stroke-miterlimit:10"></path><path d="M384.29,344.53c1.18,1.61,1.29,3.53.24,4.31s-2.86.1-4-1.51-1.29-3.53-.24-4.3S383.11,342.93,384.29,344.53Z" style="fill:#fff;stroke:#263238;stroke-miterlimit:10"></path><path d="M385.73,351.36l0,0a49.47,49.47,0,0,0-18.15-10.11c-1.29-.4-2.6-.74-3.92-1-5.46-1.18-11.1-1.43-16.59-2.45l-27-14.14c-3.29-2.77-6.45-5.71-9.55-8.63a46.53,46.53,0,0,1-7.34-8.25l1.43-7.64c5.28,3,10.2,7.14,16.29,9.32a113.51,113.51,0,0,0,24.25,5.29c7.4.93,14.93,1.59,22.33,2.74-2.25,2.88-2.28,6.89,6.19,11.6C384.83,334.28,386.18,344.74,385.73,351.36Z" style="fill:#263238;stroke:#263238;stroke-miterlimit:10"></path><path d="M393.58,352.3c1.19,1.61,1.3,3.53.25,4.31s-2.86.1-4-1.51-1.29-3.53-.25-4.3S392.4,350.7,393.58,352.3Z" style="fill:#fff;stroke:#263238;stroke-miterlimit:10"></path><path d="M398.82,363.26c.84,1.81.55,3.72-.63,4.27s-2.82-.49-3.65-2.3-.55-3.71.63-4.26S398,361.45,398.82,363.26Z" style="fill:#fff;stroke:#263238;stroke-miterlimit:10"></path><path d="M397.92,376.94c-.17,2-1.36,3.5-2.66,3.39s-2.21-1.81-2-3.8,1.36-3.5,2.66-3.39S398.09,375,397.92,376.94Z" style="fill:#fff;stroke:#263238;stroke-miterlimit:10"></path><path d="M394,390.7c-.54,1.92-2,3.18-3.25,2.83s-1.83-2.2-1.28-4.12,2-3.18,3.25-2.82S394.5,388.78,394,390.7Z" style="fill:#fff;stroke:#263238;stroke-miterlimit:10"></path><ellipse cx="387.8" cy="402.54" rx="3.61" ry="2.36" transform="translate(-105.4 665.57) rotate(-74.14)" style="fill:#fff;stroke:#263238;stroke-miterlimit:10"></ellipse><path d="M210.14,321.83S187.59,332.67,176,341.4a36.9,36.9,0,0,1-4.43,2.9c-8.9,4.92-14.66,2-25.2-1.19-8.27-2.52-15.9-6.56-23.75-9.81-7.34-3-14.88-5.37-23.32-5.1A45.71,45.71,0,0,0,62.6,349c-8.19,12.65-7.87,27.5,6.32,35.45,13.28,7.43,9.44,25.19,11.14,37.64,1.59,11.66,14.31,15.9,23.32,16.43s9.54,6.89-3.71,9.54C89.42,450.12,78,442.6,72.72,434.26c-6.46-10.21,1-22.66-6.11-32-4.2-5.52-11.25-8.56-16.77-12.51-.71-.51-1.4-1.05-2.06-1.62-23.62-20.5-.9-58.55,20.36-70.36C94,303.43,127.7,305.59,154.8,315a57.59,57.59,0,0,0,44.13-2.6C208.61,307.17,210.14,321.83,210.14,321.83Z" style="fill:#08AEEA;stroke:#263238;stroke-miterlimit:10"></path><path d="M185,323.22,171.52,344.3c-8.9,4.92-14.66,2-25.2-1.19-8.27-2.52-15.9-6.56-23.75-9.81,6.87,1,16.57,2.05,23.84,1.49,12.54-1,30.87-8.2,30.87-8.2Z" style="fill:#263238;stroke:#263238;stroke-miterlimit:10"></path><path d="M230.06,293.85a1.36,1.36,0,0,0,0,.2c-1.16,9.7-4.1,20.28-12.45,25.31-5.25,3.16-11.7,3.38-17.67,1.69a30.72,30.72,0,0,1-7.28-3.13c-7.53-4.47-13.17-11.45-18.61-18.3-7-8.82-14.87-18.69-27-19.42-21.54-1.28-27.7,16.42-34.49,33.08a0,0,0,0,1,0,0c-2.37,5.81-4.82,11.49-8,16.19-12.67,18.58-57.55,57.09-77.93,27.11-7.11-10.46-6.19-24.46,3.28-33.14,6.92-6.34,5.19-.57,0,6.93s-1.73,27.69,16.16,26,38.08-20.77,43.27-34.61c7.53-20.08,8.81-41.81,28.4-54.7,20.85-13.71,44.28-7.4,63.48,5.14C196.31,282.09,211.94,294,230.06,293.85Z" style="fill:#08AEEA;stroke:#263238;stroke-miterlimit:10"></path><path d="M199.92,321.05a30.72,30.72,0,0,1-7.28-3.13c-7.53-4.47-13.17-11.45-18.61-18.3-7-8.82-14.87-18.69-27-19.42-21.54-1.28-27.7,16.42-34.49,33.08,1.3-5.73,5.51-21.79,13.5-31.11,9.84-11.48,24.61-12.3,36.5-4.92s34.05,33.63,39,36.5C203.43,314.89,202.17,317.87,199.92,321.05Z" style="fill:#fff;stroke:#263238;stroke-miterlimit:10"></path><path d="M184.31,301.72c1.58,1.5,1.84,3.8.57,5.13s-3.57,1.2-5.15-.3-1.84-3.8-.57-5.13S182.73,300.22,184.31,301.72Z" style="fill:#fff;stroke:#263238;stroke-miterlimit:10"></path><path d="M174.57,288.9c1.58,1.5,1.84,3.79.57,5.13s-3.57,1.2-5.15-.3-1.84-3.8-.57-5.14S173,287.4,174.57,288.9Z" style="fill:#fff;stroke:#263238;stroke-miterlimit:10"></path><path d="M164,279.28c1.58,1.5,1.83,3.8.57,5.13s-3.58,1.2-5.16-.3-1.83-3.8-.57-5.13S162.39,277.78,164,279.28Z" style="fill:#fff;stroke:#263238;stroke-miterlimit:10"></path><path d="M149.37,274.17c2.18,0,3.93,1.52,3.92,3.36s-1.79,3.31-4,3.3-3.93-1.52-3.92-3.35S147.19,274.16,149.37,274.17Z" style="fill:#fff;stroke:#263238;stroke-miterlimit:10"></path><path d="M133.84,276a3.16,3.16,0,1,1-1.82,4.48A3.46,3.46,0,0,1,133.84,276Z" style="fill:#fff;stroke:#263238;stroke-miterlimit:10"></path><path d="M123.77,287.11a2.39,2.39,0,1,1-.2,3.65A2.61,2.61,0,0,1,123.77,287.11Z" style="fill:#fff;stroke:#263238;stroke-miterlimit:10"></path><path d="M367.52,373.37c1.94-10.77-9.37-27.28-24.7-28.9S295.48,351,295.48,351s34.91-2.18,43.75,7.81c6.41,7.23,9.26,13.67,8.65,17h-.24c-18.58.28-32.74-11.45-52.56-8.62s-28.95,14-27.56,23.74c0,0,12.59-13.63,26.35-10S317,387.62,332.53,393s29.88,4.49,36.67-.35,7.19-11.31,7.19-17.38C376.39,371.9,373.33,372.29,367.52,373.37Z" style="fill:#263238;stroke:#263238;stroke-miterlimit:10"></path><path d="M200.82,330.32c-15,2.83-38.49,24.18-40.69,32.32s-7.45,18.24-7.45,18.24,18.4-18.25,40.06-28.31,34.75-2.27,34.75-2.27S215.79,327.48,200.82,330.32Z" style="fill:#263238;stroke:#263238;stroke-miterlimit:10"></path><path d="M393.86,286c-3.82,7.46-10.42,12.18-18.1,14.62a43.94,43.94,0,0,1-10.6,2c-5.63.38-15.67-3.39-20.5-6.45-3.8-2.41-15.48-10.34-20.28-10.84-7.24-.76-14.48,8.4-14.7,14.33-.43,11.73,33.44,19.11,41.35,22.31,19.49,7.88,33.09,22.67,29.8,45.33-1.87,12.91-9.15,19.33-18.73,21.86-16.7,4.42-40.38-3-54.46-8.5-5.85-2.29-11.87-4.88-18.14-4.47a23.12,23.12,0,0,0-15.42,8c-3.46,3.91-5.81,9-5.5,14.23a14.69,14.69,0,0,0,.33,2.29A16.27,16.27,0,0,0,282.4,413c7.6.9,15.49-4.57,17.12-12.12a2.53,2.53,0,0,1,1-1.59,1.79,1.79,0,0,1,2.69.51,10.17,10.17,0,0,1,2.35,7.78c-.92,7.34-6.82,11.78-13.13,13.9a31,31,0,0,1-29.83-5.93c-13.27-11.78-12-33.48.9-45,10.19-9.11,24.88-11.7,38.47-10.23s26.49,6.5,39.38,11a17,17,0,0,0,6.91,1.36c2.36-.21,4.78-1.67,5.34-4a7.13,7.13,0,0,0-.71-4.44c-3.08-7-10.17-11.49-17.55-13.35s-15.12-1.44-22.71-.93c-15.22,1-30.61,2.37-45,7.38-24,8.33-58.74,43-30.84,67.28,6.75,5.86,29.09,11.34,38,12.38,21.23,2.49,86.15-9.55,106.86-4.76a1.49,1.49,0,0,1,.12,2.87c-19,5.87-89.8,17.58-109.82,17-14.35-.38-36.91-5.63-48.76-13.73-10.06-6.87-15-21.27-16.32-33.38s2.21-24.53,8.92-34.7c2.58-3.92,6.66-6.92,8.25-11.46,2.47-7.07-3.74-13.5-9.61-16.4-9.39-4.64-22.4-3.29-30,4.15-1.54,1.49-3.06,3-4.58,4.51-18,18-33.52,40.21-54.4,54.92a36.19,36.19,0,0,1-16,6.46c-38.56,5.15-58.61-56-22.37-71.43,8.56-3.64,19-2.8,26.57,2.66s11.6,15.54,9.39,24.58c-5.07-7.42-10.75-15.35-20.25-16.67A19.64,19.64,0,0,0,82,364.2c-6.76,17.44,13.24,34.72,30,30.38,14.86-3.86,23-21.05,31.18-32.53l.51-.71c8.65-12.13,17.47-24.37,27.41-35.49,9.38-10.49,22.18-16.16,34.5-22.34,12.79-6.41,25.53-13.5,35.49-23.95,9.75-10.23,8.72-9,11.82-14.19,5.46-9.16,5.25-31.5,14.56-44.38s22.72-25.2,38.47-29.1c18.28-4.51,37.54-1.5,54.65,5.86C403.72,216.3,404.06,266.07,393.86,286Z" style="fill:#08AEEA;stroke:#263238;stroke-miterlimit:10"></path><path d="M359.86,208.54c-.31,2.05-3.29,3.28-6.65,2.77s-5.83-2.6-5.52-4.65,3.3-3.28,6.66-2.76S360.18,206.5,359.86,208.54Z" style="fill:#263238"></path><path d="M354.85,226.88c0,1.18-1.68,2.14-3.75,2.14s-3.75-1-3.75-2.14,1.68-2.15,3.75-2.15S354.85,225.69,354.85,226.88Z" style="fill:#263238"></path><path d="M315.14,207.67c.65,1-.21,2.71-1.93,3.86s-3.65,1.28-4.31.29.21-2.71,1.93-3.86S314.48,206.68,315.14,207.67Z" style="fill:#263238"></path><ellipse cx="365.82" cy="253.64" rx="7.76" ry="6.96" style="fill:#263238"></ellipse><path d="M338.25,196.36c0,1.18-1.44,2.14-3.21,2.14s-3.21-1-3.21-2.14,1.43-2.14,3.21-2.14S338.25,195.18,338.25,196.36Z" style="fill:#263238"></path><path d="M362.1,389.14c-16.7,4.42-40.38-3-54.46-8.5-5.85-2.29-11.87-4.88-18.14-4.47a23.12,23.12,0,0,0-15.42,8c-3.46,3.91-5.81,9-5.5,14.23a14.69,14.69,0,0,0,.33,2.29,21.73,21.73,0,0,1-1.39-9.78c.82-9,7.38-18.46,26-18.84s37.13,13.92,57.31,17A35.87,35.87,0,0,0,362.1,389.14Z" style="fill:#fff;stroke:#263238;stroke-miterlimit:10"></path><path d="M326.73,385.16c-.16,1.37-1.76,2.31-3.59,2.11s-3.18-1.49-3-2.86,1.76-2.31,3.59-2.11S326.88,383.79,326.73,385.16Z" style="fill:#fff;stroke:#263238;stroke-miterlimit:10"></path><path d="M315.35,380.44c-.15,1.37-1.76,2.32-3.59,2.11s-3.18-1.49-3-2.86,1.77-2.31,3.59-2.11S315.51,379.07,315.35,380.44Z" style="fill:#fff;stroke:#263238;stroke-miterlimit:10"></path><path d="M302.86,376.56c-.15,1.37-1.76,2.31-3.59,2.1s-3.18-1.48-3-2.85,1.76-2.32,3.59-2.11S303,375.19,302.86,376.56Z" style="fill:#fff;stroke:#263238;stroke-miterlimit:10"></path><path d="M290.38,376.13c.14,1.37-1.24,2.63-3.07,2.81s-3.42-.78-3.56-2.15,1.24-2.64,3.07-2.82S290.25,374.76,290.38,376.13Z" style="fill:#fff;stroke:#263238;stroke-miterlimit:10"></path><path d="M280,378.55c.85,1.09.38,2.89-1.06,4s-3.31,1.19-4.17.11-.38-2.88,1.06-4S279.11,377.47,280,378.55Z" style="fill:#fff;stroke:#263238;stroke-miterlimit:10"></path><path d="M375.76,300.63a43.94,43.94,0,0,1-10.6,2c-5.63.38-15.67-3.39-20.5-6.45-3.8-2.41-15.48-10.34-20.28-10.84-7.24-.76-14.48,8.4-14.7,14.33,0,0-1.5-3.52.37-9.67,2.94-9.67,17.27-11.43,20.95-18.46s.37-15.24.37-15.24,7.91,8.86,4.71,18.48,4.12,16.48,13.28,21.06,12.82,5,20.61,5C371.94,300.85,373.92,300.76,375.76,300.63Z" style="fill:#263238;stroke:#263238;stroke-miterlimit:10"></path><path d="M263.85,248.93c.38-1.38.75-2.85,1.1-4.41" style="fill:#08AEEA;stroke:#263238;stroke-miterlimit:10"></path><path d="M261.29,236.17l-8.59,4.45-5,16.75,2.63,12.11s6.23-1.05,11.37-14.16" style="fill:#08AEEA;stroke:#263238;stroke-miterlimit:10"></path><ellipse cx="313.94" cy="266.12" rx="12.26" ry="12.56" transform="translate(-69.48 116.56) rotate(-18.98)" style="fill:#fff;stroke:#263238;stroke-miterlimit:10"></ellipse><path d="M325.54,262.13a12.83,12.83,0,0,0-2.14-3.86c-.71-.4-1.52-.11-2.44.36-1.46.75-1.14,3.84-5.83,5.95s-7.71,2.65-9.64.61c-1.48-1.57-3,1.21-3.7,2.61a12.77,12.77,0,0,0,7.89,10,5.82,5.82,0,0,0,.26-1.1c.27-2.06,0-3.46,3.48-5.63,2.93-1.84,9.62-1.06,12.44-1.7A12.65,12.65,0,0,0,325.54,262.13Z" style="fill:#263238;stroke:#263238;stroke-miterlimit:10"></path><path d="M270.54,285.49c2.51-5.45,4.22-9.39,4.22-9.39" style="fill:none;stroke:#263238;stroke-miterlimit:10"></path><path d="M242.43,334.32c5.69-8.56,15.73-23.94,20-32.19,2.31-4.44,4.62-9.21,6.6-13.45" style="fill:none;stroke:#263238;stroke-miterlimit:10"></path><path d="M238.31,340.47s1-1.45,2.57-3.83" style="fill:none;stroke:#263238;stroke-miterlimit:10"></path><path d="M244.68,289.77a38.54,38.54,0,0,0,3.1-3.26" style="fill:none;stroke:#263238;stroke-miterlimit:10"></path><path d="M223.16,305.45a163.37,163.37,0,0,0,18.58-13.05" style="fill:none;stroke:#263238;stroke-miterlimit:10"></path><path d="M320.19,334.12a65.06,65.06,0,0,0,6.63,2.09" style="fill:none;stroke:#263238;stroke-miterlimit:10"></path><path d="M291.78,306a31.07,31.07,0,0,0,5.91,13.41c4.33,5.66,11.08,9.73,17,12.44" style="fill:none;stroke:#263238;stroke-miterlimit:10"></path><path d="M291.8,294.09a28.42,28.42,0,0,0-.54,7.19" style="fill:none;stroke:#263238;stroke-miterlimit:10"></path></g></svg>