<?xml version="1.0" standalone="no"?><svg xmlns="http://www.w3.org/2000/svg" viewBox="0 0 1440 320"><path fill="#f6f6f6" fill-opacity="1" d="M0,160L40,165.3C80,171,160,181,240,176C320,171,400,149,480,160C560,171,640,213,720,197.3C800,181,880,107,960,112C1040,117,1120,203,1200,229.3C1280,256,1360,224,1400,208L1440,192L1440,320L1400,320C1360,320,1280,320,1200,320C1120,320,1040,320,960,320C880,320,800,320,720,320C640,320,560,320,480,320C400,320,320,320,240,320C160,320,80,320,40,320L0,320Z"></path></svg>